<svg xmlns="http://www.w3.org/2000/svg" width="2440" height="520" viewBox="0 0 2440 520">
<defs>
<marker id="arrow" markerWidth="10" markerHeight="10" refX="9" refY="3" orient="auto" markerUnits="strokeWidth">
<path d="M0,0 L0,6 L9,3 z" fill="#20242a"/>
</marker>
</defs>
<rect width="100%" height="100%" fill="#fff"/>
<style>text{font-family:Arial,Helvetica,sans-serif;fill:#20242a}</style>
<text x="1220.0" y="28.0" text-anchor="middle" font-size="18" font-weight="700">PERT/Event Network with Expected Durations and Critical Path</text>
<text x="1220.0" y="52.0" text-anchor="middle" font-size="13" font-weight="400">Critical path: Check stock -&gt; Check materials -&gt; Request materials -&gt; Obtain materials -&gt; Manufacture -&gt; Confirm order -&gt; Emit invoice -&gt; Receive payment -&gt; Archive order | Expected duration 134.84 hours</text>
<polyline points="115.0,260.0 136.5,260.0 136.5,260.0 158.0,260.0" fill="none" stroke="#c2410c" stroke-width="4" stroke-linejoin="round" stroke-linecap="round" marker-end="url(#arrow)"/>
<text x="136.5" y="252.0" text-anchor="middle" font-size="12" fill="#c2410c">E=0.00h</text>
<polyline points="552.0,125.0 840.0,125.0 840.0,125.0 1128.0,125.0" fill="none" stroke="#20242a" stroke-width="2" stroke-linejoin="round" stroke-linecap="round" marker-end="url(#arrow)"/>
<text x="840.0" y="117.0" text-anchor="middle" font-size="12" fill="#20242a">E=5.88h</text>
<polyline points="552.0,125.0 595.0,125.0 595.0,125.0 638.0,125.0" fill="none" stroke="#c2410c" stroke-width="4" stroke-linejoin="round" stroke-linecap="round" marker-end="url(#arrow)"/>
<text x="595.0" y="117.0" text-anchor="middle" font-size="12" fill="#c2410c">E=1.10h</text>
<polyline points="322.0,260.0 355.0,260.0 355.0,125.0 388.0,125.0" fill="none" stroke="#c2410c" stroke-width="4" stroke-linejoin="round" stroke-linecap="round" marker-end="url(#arrow)"/>
<text x="355.0" y="184.5" text-anchor="middle" font-size="12" fill="#c2410c">E=0.22h</text>
<polyline points="322.0,260.0 355.0,260.0 355.0,395.0 388.0,395.0" fill="none" stroke="#20242a" stroke-width="2" stroke-linejoin="round" stroke-linecap="round" marker-end="url(#arrow)"/>
<text x="355.0" y="319.5" text-anchor="middle" font-size="12" fill="#20242a">E=3.46h</text>
<polyline points="1522.0,260.0 1560.0,260.0 1560.0,125.0 1598.0,125.0" fill="none" stroke="#c2410c" stroke-width="4" stroke-linejoin="round" stroke-linecap="round" marker-end="url(#arrow)"/>
<text x="1560.0" y="184.5" text-anchor="middle" font-size="12" fill="#c2410c">E=0.42h</text>
<polyline points="1522.0,260.0 1560.0,260.0 1560.0,395.0 1598.0,395.0" fill="none" stroke="#20242a" stroke-width="2" stroke-linejoin="round" stroke-linecap="round" marker-end="url(#arrow)"/>
<text x="1560.0" y="319.5" text-anchor="middle" font-size="12" fill="#20242a">E=0.32h</text>
<polyline points="1762.0,125.0 1805.0,125.0 1805.0,125.0 1848.0,125.0" fill="none" stroke="#c2410c" stroke-width="4" stroke-linejoin="round" stroke-linecap="round" marker-end="url(#arrow)"/>
<text x="1805.0" y="117.0" text-anchor="middle" font-size="12" fill="#c2410c">E=57.32h</text>
<polyline points="1762.0,395.0 1805.0,395.0 1805.0,395.0 1848.0,395.0" fill="none" stroke="#20242a" stroke-width="2" stroke-linejoin="round" stroke-linecap="round" marker-end="url(#arrow)"/>
<text x="1805.0" y="387.0" text-anchor="middle" font-size="12" fill="#20242a">E=1.07h</text>
<polyline points="1292.0,125.0 1325.0,125.0 1325.0,260.0 1358.0,260.0" fill="none" stroke="#c2410c" stroke-width="4" stroke-linejoin="round" stroke-linecap="round" marker-end="url(#arrow)"/>
<text x="1325.0" y="184.5" text-anchor="middle" font-size="12" fill="#c2410c">E=0.13h</text>
<polyline points="1052.0,125.0 1090.0,125.0 1090.0,125.0 1128.0,125.0" fill="none" stroke="#c2410c" stroke-width="4" stroke-linejoin="round" stroke-linecap="round" marker-end="url(#arrow)"/>
<text x="1090.0" y="117.0" text-anchor="middle" font-size="12" fill="#c2410c">E=30.88h</text>
<polyline points="2012.0,125.0 2050.0,125.0 2050.0,260.0 2088.0,260.0" fill="none" stroke="#c2410c" stroke-width="4" stroke-linejoin="round" stroke-linecap="round" marker-end="url(#arrow)"/>
<text x="2050.0" y="184.5" text-anchor="middle" font-size="12" fill="#c2410c">E=0.12h</text>
<polyline points="802.0,125.0 845.0,125.0 845.0,125.0 888.0,125.0" fill="none" stroke="#c2410c" stroke-width="4" stroke-linejoin="round" stroke-linecap="round" marker-end="url(#arrow)"/>
<text x="845.0" y="117.0" text-anchor="middle" font-size="12" fill="#c2410c">E=44.63h</text>
<polyline points="552.0,395.0 955.0,395.0 955.0,260.0 1358.0,260.0" fill="none" stroke="#20242a" stroke-width="2" stroke-linejoin="round" stroke-linecap="round" marker-end="url(#arrow)"/>
<text x="955.0" y="319.5" text-anchor="middle" font-size="12" fill="#20242a">E=0.47h</text>
<polyline points="2012.0,395.0 2050.0,395.0 2050.0,260.0 2088.0,260.0" fill="none" stroke="#20242a" stroke-width="2" stroke-linejoin="round" stroke-linecap="round" marker-end="url(#arrow)"/>
<text x="2050.0" y="319.5" text-anchor="middle" font-size="12" fill="#20242a">E=11.22h</text>
<polyline points="2252.0,260.0 2278.5,260.0 2278.5,260.0 2305.0,260.0" fill="none" stroke="#c2410c" stroke-width="4" stroke-linejoin="round" stroke-linecap="round" marker-end="url(#arrow)"/>
<text x="2278.5" y="252.0" text-anchor="middle" font-size="12" fill="#c2410c">E=0.00h</text>
<circle cx="70.0" cy="260.0" r="45" fill="#fff" stroke="#20242a" stroke-width="2"/>
<text x="70.0" y="256.0" text-anchor="middle" font-size="13" font-weight="700"><tspan x="70.0" dy="0">Start</tspan><tspan x="70.0" dy="15">0.00h</tspan></text>
<rect x="2088.0" y="217.0" width="164" height="86" rx="7" ry="7" fill="#fff" stroke="#c2410c" stroke-width="3"/>
<text x="2170.0" y="238.0" text-anchor="middle" font-size="12" font-weight="700"><tspan x="2170.0" dy="0">Archive order</tspan><tspan x="2170.0" dy="14">ES 134.8h</tspan><tspan x="2170.0" dy="14">LS 134.8h</tspan></text>
<rect x="388.0" y="82.0" width="164" height="86" rx="7" ry="7" fill="#fff" stroke="#c2410c" stroke-width="3"/>
<text x="470.0" y="103.0" text-anchor="middle" font-size="12" font-weight="700"><tspan x="470.0" dy="0">Check materials</tspan><tspan x="470.0" dy="14">ES 0.2h</tspan><tspan x="470.0" dy="14">LS 0.2h</tspan></text>
<rect x="158.0" y="217.0" width="164" height="86" rx="7" ry="7" fill="#fff" stroke="#c2410c" stroke-width="3"/>
<text x="240.0" y="238.0" text-anchor="middle" font-size="12" font-weight="700"><tspan x="240.0" dy="0">Check stock</tspan><tspan x="240.0" dy="14">ES 0.0h</tspan><tspan x="240.0" dy="14">LS 0.0h</tspan></text>
<rect x="1358.0" y="217.0" width="164" height="86" rx="7" ry="7" fill="#fff" stroke="#c2410c" stroke-width="3"/>
<text x="1440.0" y="238.0" text-anchor="middle" font-size="12" font-weight="700"><tspan x="1440.0" dy="0">Confirm order</tspan><tspan x="1440.0" dy="14">ES 77.0h</tspan><tspan x="1440.0" dy="14">LS 77.0h</tspan></text>
<rect x="1598.0" y="82.0" width="164" height="86" rx="7" ry="7" fill="#fff" stroke="#c2410c" stroke-width="3"/>
<text x="1680.0" y="103.0" text-anchor="middle" font-size="12" font-weight="700"><tspan x="1680.0" dy="0">Emit invoice</tspan><tspan x="1680.0" dy="14">ES 77.4h</tspan><tspan x="1680.0" dy="14">LS 77.4h</tspan></text>
<rect x="1598.0" y="352.0" width="164" height="86" rx="7" ry="7" fill="#fff" stroke="#20242a" stroke-width="2"/>
<text x="1680.0" y="373.0" text-anchor="middle" font-size="12" font-weight="400"><tspan x="1680.0" dy="0">Get address</tspan><tspan x="1680.0" dy="14">ES 77.3h</tspan><tspan x="1680.0" dy="14">LS 122.5h</tspan></text>
<rect x="1128.0" y="82.0" width="164" height="86" rx="7" ry="7" fill="#fff" stroke="#c2410c" stroke-width="3"/>
<text x="1210.0" y="103.0" text-anchor="middle" font-size="12" font-weight="700"><tspan x="1210.0" dy="0">Manufacture</tspan><tspan x="1210.0" dy="14">ES 76.8h</tspan><tspan x="1210.0" dy="14">LS 76.8h</tspan></text>
<rect x="888.0" y="82.0" width="164" height="86" rx="7" ry="7" fill="#fff" stroke="#c2410c" stroke-width="3"/>
<text x="970.0" y="103.0" text-anchor="middle" font-size="12" font-weight="700"><tspan x="970.0" dy="0">Obtain materials</tspan><tspan x="970.0" dy="14">ES 46.0h</tspan><tspan x="970.0" dy="14">LS 46.0h</tspan></text>
<rect x="1848.0" y="82.0" width="164" height="86" rx="7" ry="7" fill="#fff" stroke="#c2410c" stroke-width="3"/>
<text x="1930.0" y="103.0" text-anchor="middle" font-size="12" font-weight="700"><tspan x="1930.0" dy="0">Receive payment</tspan><tspan x="1930.0" dy="14">ES 134.7h</tspan><tspan x="1930.0" dy="14">LS 134.7h</tspan></text>
<rect x="638.0" y="82.0" width="164" height="86" rx="7" ry="7" fill="#fff" stroke="#c2410c" stroke-width="3"/>
<text x="720.0" y="103.0" text-anchor="middle" font-size="12" font-weight="700"><tspan x="720.0" dy="0">Request materials</tspan><tspan x="720.0" dy="14">ES 1.3h</tspan><tspan x="720.0" dy="14">LS 1.3h</tspan></text>
<rect x="388.0" y="352.0" width="164" height="86" rx="7" ry="7" fill="#fff" stroke="#20242a" stroke-width="2"/>
<text x="470.0" y="373.0" text-anchor="middle" font-size="12" font-weight="400"><tspan x="470.0" dy="0">Retrieve item</tspan><tspan x="470.0" dy="14">ES 3.5h</tspan><tspan x="470.0" dy="14">LS 76.5h</tspan></text>
<rect x="1848.0" y="352.0" width="164" height="86" rx="7" ry="7" fill="#fff" stroke="#20242a" stroke-width="2"/>
<text x="1930.0" y="373.0" text-anchor="middle" font-size="12" font-weight="400"><tspan x="1930.0" dy="0">Ship product</tspan><tspan x="1930.0" dy="14">ES 78.4h</tspan><tspan x="1930.0" dy="14">LS 123.6h</tspan></text>
<circle cx="2350.0" cy="260.0" r="45" fill="#fff" stroke="#20242a" stroke-width="4"/>
<text x="2350.0" y="256.0" text-anchor="middle" font-size="13" font-weight="700"><tspan x="2350.0" dy="0">End</tspan><tspan x="2350.0" dy="15">134.84h</tspan></text>
</svg>
