<svg xmlns="http://www.w3.org/2000/svg" width="2750" height="1074" viewBox="0 25 2750 1074">
<defs>
<marker id="arrow" markerWidth="10" markerHeight="10" refX="9" refY="3" orient="auto" markerUnits="strokeWidth">
<path d="M0,0 L0,6 L9,3 z" fill="#20242a"/>
</marker>
</defs>
<style>
text{font-family:Arial,Helvetica,sans-serif;fill:#20242a}.flow{stroke:#20242a;stroke-width:2.1;stroke-linejoin:round;stroke-linecap:round}.lane-label{fill:#0f766e;font-weight:700}.lane{fill:#f8fafc;stroke:#cbd5e1;stroke-width:1.4}.lane:nth-child(even){fill:#ffffff}.flow-label{fill:#596579;font-size:12px}
</style>
<rect x="0" y="-1000" width="100%" height="3000" fill="#fff"/>
<rect class="lane" x="18" y="42.0" width="2714.0" height="109.0"/>
<text x="92.0" y="92.5" text-anchor="middle" font-size="14" font-weight="700">Customer</text>
<rect class="lane" x="18" y="92.0" width="2714.0" height="445.0"/>
<text x="92.0" y="310.5" text-anchor="middle" font-size="14" font-weight="700"><tspan x="92.0" dy="0">Marketplace</tspan><tspan x="92.0" dy="16">system</tspan></text>
<rect class="lane" x="18" y="402.0" width="2714.0" height="137.0"/>
<text x="92.0" y="466.5" text-anchor="middle" font-size="14" font-weight="700">Payment service</text>
<rect class="lane" x="18" y="532.0" width="2714.0" height="137.0"/>
<text x="92.0" y="596.5" text-anchor="middle" font-size="14" font-weight="700">Warehouse</text>
<rect class="lane" x="18" y="642.0" width="2714.0" height="199.0"/>
<text x="92.0" y="737.5" text-anchor="middle" font-size="14" font-weight="700">Courier</text>
<rect class="lane" x="18" y="847.0" width="2714.0" height="137.0"/>
<text x="92.0" y="911.5" text-anchor="middle" font-size="14" font-weight="700">Customer support</text>
<polyline class="flow" points="286.0,88.0 303.0,88.0 303.0,217.0 320.0,217.0" fill="none" marker-end="url(#arrow)"/>
<polyline class="flow" points="450.0,217.0 475.0,217.0 475.0,217.0 500.0,217.0" fill="none" marker-end="url(#arrow)"/>
<polyline class="flow" points="630.0,217.0 655.0,217.0 655.0,217.0 680.0,217.0" fill="none" marker-end="url(#arrow)"/>
<polyline class="flow" points="730.0,217.0 755.0,217.0 755.0,152.0 780.0,152.0" fill="none" marker-end="url(#arrow)"/>
<text class="flow-label" x="755.0" y="146.0" text-anchor="middle">No</text>
<polyline class="flow" points="910.0,152.0 935.0,152.0 935.0,152.0 960.0,152.0" fill="none" marker-end="url(#arrow)"/>
<polyline class="flow" points="730.0,217.0 755.0,217.0 755.0,287.0 780.0,287.0" fill="none" marker-end="url(#arrow)"/>
<text class="flow-label" x="755.0" y="281.0" text-anchor="middle">Yes</text>
<polyline class="flow" points="910.0,287.0 935.0,287.0 935.0,287.0 960.0,287.0" fill="none" marker-end="url(#arrow)"/>
<polyline class="flow" points="1010.0,287.0 1110.0,287.0 1110.0,287.0 1210.0,287.0" fill="none" marker-end="url(#arrow)"/>
<text class="flow-label" x="1110.0" y="281.0" text-anchor="middle">Yes</text>
<polyline class="flow" points="1010.0,287.0 1030.0,287.0 1030.0,362.0 1050.0,362.0" fill="none" marker-end="url(#arrow)"/>
<text class="flow-label" x="1030.0" y="356.0" text-anchor="middle">No</text>
<polyline class="flow" points="1180.0,362.0 1195.0,362.0 1195.0,287.0 1210.0,287.0" fill="none" marker-end="url(#arrow)"/>
<polyline class="flow" points="1260.0,287.0 1285.0,287.0 1285.0,287.0 1310.0,287.0" fill="none" marker-end="url(#arrow)"/>
<polyline class="flow" points="1360.0,287.0 1385.0,287.0 1385.0,462.0 1410.0,462.0" fill="none" marker-end="url(#arrow)"/>
<polyline class="flow" points="1540.0,462.0 1560.0,462.0 1560.0,462.0 1580.0,462.0" fill="none" marker-end="url(#arrow)"/>
<polyline class="flow" points="1710.0,462.0 1730.0,462.0 1730.0,462.0 1750.0,462.0" fill="none" marker-end="url(#arrow)"/>
<polyline class="flow" points="1360.0,287.0 1385.0,287.0 1385.0,592.0 1410.0,592.0" fill="none" marker-end="url(#arrow)"/>
<polyline class="flow" points="1540.0,592.0 1560.0,592.0 1560.0,722.0 1580.0,722.0" fill="none" marker-end="url(#arrow)"/>
<polyline class="flow" points="1880.0,462.0 1905.0,462.0 1905.0,467.0 1930.0,467.0" fill="none" marker-end="url(#arrow)"/>
<polyline class="flow" points="1710.0,722.0 1820.0,722.0 1820.0,467.0 1930.0,467.0" fill="none" marker-end="url(#arrow)"/>
<polyline class="flow" points="1980.0,467.0 2005.0,467.0 2005.0,467.0 2030.0,467.0" fill="none" marker-end="url(#arrow)"/>
<polyline class="flow" points="2080.0,467.0 2105.0,467.0 2105.0,467.0 2130.0,467.0" fill="none" marker-end="url(#arrow)"/>
<polyline class="flow" points="2180.0,467.0 2210.0,467.0 2210.0,688.0 2240.0,688.0" fill="none" marker-end="url(#arrow)"/>
<text class="flow-label" x="2210.0" y="682.0" text-anchor="middle">Delivered</text>
<polyline class="flow" points="2180.0,467.0 2210.0,467.0 2210.0,778.0 2240.0,778.0" fill="none" marker-end="url(#arrow)"/>
<text class="flow-label" x="2210.0" y="772.0" text-anchor="middle">2 days late</text>
<polyline class="flow" points="2276.0,778.0 2308.0,778.0 2308.0,907.0 2340.0,907.0" fill="none" marker-end="url(#arrow)"/>
<polyline class="flow" points="2470.0,907.0 2490.0,907.0 2490.0,907.0 2510.0,907.0" fill="none" marker-end="url(#arrow)"/>
<polyline class="flow" points="2640.0,907.0 2700.0,907.0 2700.0,1054.0 1970.0,1054.0 1970.0,467.0 2030.0,467.0" fill="none" marker-end="url(#arrow)"/>
<polyline class="flow" points="2276.0,688.0 2348.0,688.0 2348.0,217.0 2420.0,217.0" fill="none" marker-end="url(#arrow)"/>
<polyline class="flow" points="2550.0,217.0 2575.0,217.0 2575.0,217.0 2600.0,217.0" fill="none" marker-end="url(#arrow)"/>
<circle cx="268.0" cy="88.0" r="18.0" fill="#fff" stroke="#20242a" stroke-width="2"/>
<text x="268.0" y="124.0" text-anchor="middle" font-size="12" font-weight="400">Order received</text>
<rect x="320.0" y="185.0" width="130" height="64" rx="8" ry="8" fill="#fff" stroke="#20242a" stroke-width="2"/>
<text x="385.0" y="216.0" text-anchor="middle" font-size="13" font-weight="400">Capture order</text>
<rect x="500.0" y="185.0" width="130" height="64" rx="8" ry="8" fill="#fff" stroke="#20242a" stroke-width="2"/>
<text x="565.0" y="216.0" text-anchor="middle" font-size="13" font-weight="400">Check stock</text>
<polygon points="705.0,192.0 730.0,217.0 705.0,242.0 680.0,217.0" fill="#fff" stroke="#20242a" stroke-width="2"/>
<text x="705.0" y="222.0" text-anchor="middle" font-size="18" font-weight="700">X</text>
<text x="705.0" y="260.0" text-anchor="middle" font-size="12" font-weight="400">Stock available?</text>
<rect x="780.0" y="120.0" width="130" height="64" rx="8" ry="8" fill="#fff" stroke="#20242a" stroke-width="2"/>
<text x="845.0" y="151.0" text-anchor="middle" font-size="13" font-weight="400">Reject order</text>
<circle cx="978.0" cy="152.0" r="18.0" fill="#fff" stroke="#20242a" stroke-width="4"/>
<text x="978.0" y="188.0" text-anchor="middle" font-size="12" font-weight="400">Order rejected</text>
<rect x="780.0" y="255.0" width="130" height="64" rx="8" ry="8" fill="#fff" stroke="#20242a" stroke-width="2"/>
<text x="845.0" y="286.0" text-anchor="middle" font-size="13" font-weight="400">Reserve item</text>
<polygon points="985.0,262.0 1010.0,287.0 985.0,312.0 960.0,287.0" fill="#fff" stroke="#20242a" stroke-width="2"/>
<text x="985.0" y="292.0" text-anchor="middle" font-size="18" font-weight="700">X</text>
<text x="985.0" y="330.0" text-anchor="middle" font-size="12" font-weight="400">Address known?</text>
<rect x="1050.0" y="330.0" width="130" height="64" rx="8" ry="8" fill="#fff" stroke="#20242a" stroke-width="2"/>
<text x="1115.0" y="361.0" text-anchor="middle" font-size="13" font-weight="400">Request address</text>
<polygon points="1235.0,262.0 1260.0,287.0 1235.0,312.0 1210.0,287.0" fill="#fff" stroke="#20242a" stroke-width="2"/>
<text x="1235.0" y="292.0" text-anchor="middle" font-size="18" font-weight="700">X</text>
<text x="1235.0" y="330.0" text-anchor="middle" font-size="12" font-weight="400">Address resolved</text>
<polygon points="1335.0,262.0 1360.0,287.0 1335.0,312.0 1310.0,287.0" fill="#fff" stroke="#20242a" stroke-width="2"/>
<text x="1335.0" y="292.0" text-anchor="middle" font-size="18" font-weight="700">+</text>
<text x="1335.0" y="330.0" text-anchor="middle" font-size="12" font-weight="400">Prepare order</text>
<rect x="1410.0" y="430.0" width="130" height="64" rx="8" ry="8" fill="#fff" stroke="#20242a" stroke-width="2"/>
<text x="1475.0" y="461.0" text-anchor="middle" font-size="13" font-weight="400">Authorize payment</text>
<rect x="1580.0" y="430.0" width="130" height="64" rx="8" ry="8" fill="#fff" stroke="#20242a" stroke-width="2"/>
<text x="1645.0" y="461.0" text-anchor="middle" font-size="13" font-weight="400">Emit invoice</text>
<rect x="1750.0" y="430.0" width="130" height="64" rx="8" ry="8" fill="#fff" stroke="#20242a" stroke-width="2"/>
<text x="1815.0" y="461.0" text-anchor="middle" font-size="13" font-weight="400">Receive payment</text>
<rect x="1410.0" y="560.0" width="130" height="64" rx="8" ry="8" fill="#fff" stroke="#20242a" stroke-width="2"/>
<text x="1475.0" y="591.0" text-anchor="middle" font-size="13" font-weight="400">Pick and pack</text>
<rect x="1580.0" y="690.0" width="130" height="64" rx="8" ry="8" fill="#fff" stroke="#20242a" stroke-width="2"/>
<text x="1645.0" y="721.0" text-anchor="middle" font-size="13" font-weight="400">Ship product</text>
<polygon points="1955.0,442.0 1980.0,467.0 1955.0,492.0 1930.0,467.0" fill="#fff" stroke="#20242a" stroke-width="2"/>
<text x="1955.0" y="472.0" text-anchor="middle" font-size="18" font-weight="700">+</text>
<text x="1955.0" y="510.0" text-anchor="middle" font-size="12" font-weight="400">Ready</text>
<polygon points="2055.0,442.0 2080.0,467.0 2055.0,492.0 2030.0,467.0" fill="#fff" stroke="#20242a" stroke-width="2"/>
<text x="2055.0" y="472.0" text-anchor="middle" font-size="18" font-weight="700">X</text>
<text x="2055.0" y="510.0" text-anchor="middle" font-size="12" font-weight="400">Continue wait</text>
<polygon points="2155.0,442.0 2180.0,467.0 2155.0,492.0 2130.0,467.0" fill="#fff" stroke="#20242a" stroke-width="2"/>
<text x="2155.0" y="472.0" text-anchor="middle" font-size="18" font-weight="700">E</text>
<text x="2155.0" y="510.0" text-anchor="middle" font-size="12" font-weight="400">Delivery event</text>
<circle cx="2258.0" cy="688.0" r="18.0" fill="#fff" stroke="#20242a" stroke-width="2"/>
<circle cx="2258.0" cy="688.0" r="13.0" fill="none" stroke="#20242a" stroke-width="1.5"/>
<rect x="2248.0" y="681.0" width="20" height="14" fill="none" stroke="#20242a" stroke-width="1.3"/>
<path d="M 2248.0 681.0 L 2258.0 689.0 L 2268.0 681.0" fill="none" stroke="#20242a" stroke-width="1.3"/>
<text x="2258.0" y="724.0" text-anchor="middle" font-size="12" font-weight="400">Delivery confirmed</text>
<circle cx="2258.0" cy="778.0" r="18.0" fill="#fff" stroke="#20242a" stroke-width="2"/>
<circle cx="2258.0" cy="778.0" r="13.0" fill="none" stroke="#20242a" stroke-width="1.5"/>
<circle cx="2258.0" cy="778.0" r="8" fill="none" stroke="#20242a" stroke-width="1.4"/>
<line x1="2258.0" y1="778.0" x2="2258.0" y2="772.0" stroke="#20242a" stroke-width="1.4"/>
<line x1="2258.0" y1="778.0" x2="2263.0" y2="781.0" stroke="#20242a" stroke-width="1.4"/>
<text x="2258.0" y="814.0" text-anchor="middle" font-size="12" font-weight="400">Goods delayed</text>
<rect x="2340.0" y="875.0" width="130" height="64" rx="8" ry="8" fill="#fff" stroke="#20242a" stroke-width="2"/>
<text x="2405.0" y="899.0" text-anchor="middle" font-size="13" font-weight="400"><tspan x="2405.0" dy="0">Register</tspan><tspan x="2405.0" dy="15">complaint</tspan></text>
<rect x="2510.0" y="875.0" width="130" height="64" rx="8" ry="8" fill="#fff" stroke="#20242a" stroke-width="2"/>
<text x="2575.0" y="906.0" text-anchor="middle" font-size="13" font-weight="400">Escalate courier</text>
<rect x="2420.0" y="185.0" width="130" height="64" rx="8" ry="8" fill="#fff" stroke="#20242a" stroke-width="2"/>
<text x="2485.0" y="216.0" text-anchor="middle" font-size="13" font-weight="400">Archive order</text>
<circle cx="2618.0" cy="217.0" r="18.0" fill="#fff" stroke="#20242a" stroke-width="4"/>
<text x="2618.0" y="253.0" text-anchor="middle" font-size="12" font-weight="400">Order closed</text>
</svg>
