<svg xmlns="http://www.w3.org/2000/svg" width="3880" height="600" viewBox="0 0 3880 600">
<defs>
<marker id="arrow" markerWidth="10" markerHeight="10" refX="9" refY="3" orient="auto" markerUnits="strokeWidth">
<path d="M0,0 L0,6 L9,3 z" fill="#20242a"/>
</marker>
</defs>
<style>
text{font-family:Arial,Helvetica,sans-serif;fill:#20242a}.arc{stroke:#20242a;stroke-width:1.8;stroke-linejoin:round;stroke-linecap:round}.place{fill:#fff;stroke:#20242a;stroke-width:1.8}.transition{fill:#f8fafc;stroke:#20242a;stroke-width:1.8}
</style>
<rect width="100%" height="100%" fill="#fff"/>
<text x="1940.0" y="28.0" text-anchor="middle" font-size="18" font-weight="700">Assignment 1 To-Be Petri Net</text>
<polyline class="arc" points="97.0,285.0 120.0,285.0 122.0,285.0" fill="none" marker-end="url(#arrow)"/>
<polyline class="arc" points="218.0,285.0 225.0,285.0 253.0,285.0" fill="none" marker-end="url(#arrow)"/>
<polyline class="arc" points="307.0,285.0 335.0,285.0 342.0,285.0" fill="none" marker-end="url(#arrow)"/>
<polyline class="arc" points="438.0,285.0 450.0,285.0 450.0,190.0 483.0,190.0" fill="none" marker-end="url(#arrow)"/>
<polyline class="arc" points="438.0,285.0 450.0,285.0 450.0,380.0 483.0,380.0" fill="none" marker-end="url(#arrow)"/>
<polyline class="arc" points="537.0,190.0 570.0,190.0 582.0,190.0" fill="none" marker-end="url(#arrow)"/>
<polyline class="arc" points="678.0,190.0 690.0,190.0 723.0,190.0" fill="none" marker-end="url(#arrow)"/>
<polyline class="arc" points="537.0,380.0 570.0,380.0 582.0,380.0" fill="none" marker-end="url(#arrow)"/>
<polyline class="arc" points="678.0,380.0 690.0,380.0 723.0,380.0" fill="none" marker-end="url(#arrow)"/>
<polyline class="arc" points="777.0,190.0 810.0,190.0 810.0,285.0 822.0,285.0" fill="none" marker-end="url(#arrow)"/>
<polyline class="arc" points="777.0,380.0 810.0,380.0 810.0,285.0 822.0,285.0" fill="none" marker-end="url(#arrow)"/>
<polyline class="arc" points="918.0,285.0 930.0,285.0 963.0,285.0" fill="none" marker-end="url(#arrow)"/>
<polyline class="arc" points="1017.0,285.0 1050.0,285.0 1050.0,160.0 1062.0,160.0" fill="none" marker-end="url(#arrow)"/>
<polyline class="arc" points="1158.0,160.0 1170.0,160.0 1203.0,160.0" fill="none" marker-end="url(#arrow)"/>
<polyline class="arc" points="1257.0,160.0 1290.0,160.0 1302.0,160.0" fill="none" marker-end="url(#arrow)"/>
<polyline class="arc" points="1398.0,160.0 1410.0,160.0 1443.0,160.0" fill="none" marker-end="url(#arrow)"/>
<polyline class="arc" points="1017.0,285.0 1050.0,285.0 1050.0,380.0 1062.0,380.0" fill="none" marker-end="url(#arrow)"/>
<polyline class="arc" points="1158.0,380.0 1170.0,380.0 1203.0,380.0" fill="none" marker-end="url(#arrow)"/>
<polyline class="arc" points="1257.0,380.0 1290.0,380.0 1302.0,380.0" fill="none" marker-end="url(#arrow)"/>
<polyline class="arc" points="1398.0,380.0 1410.0,380.0 1443.0,380.0" fill="none" marker-end="url(#arrow)"/>
<polyline class="arc" points="1497.0,380.0 1530.0,380.0 1542.0,380.0" fill="none" marker-end="url(#arrow)"/>
<polyline class="arc" points="1638.0,380.0 1650.0,380.0 1650.0,255.0 1683.0,255.0" fill="none" marker-end="url(#arrow)"/>
<polyline class="arc" points="1638.0,380.0 1650.0,380.0 1650.0,505.0 1683.0,505.0" fill="none" marker-end="url(#arrow)"/>
<polyline class="arc" points="1737.0,255.0 1770.0,255.0 1782.0,255.0" fill="none" marker-end="url(#arrow)"/>
<polyline class="arc" points="1878.0,255.0 1890.0,255.0 1923.0,255.0" fill="none" marker-end="url(#arrow)"/>
<polyline class="arc" points="1977.0,255.0 2010.0,255.0 2022.0,255.0" fill="none" marker-end="url(#arrow)"/>
<polyline class="arc" points="2118.0,255.0 2130.0,255.0 2163.0,255.0" fill="none" marker-end="url(#arrow)"/>
<polyline class="arc" points="1737.0,505.0 1770.0,505.0 1782.0,505.0" fill="none" marker-end="url(#arrow)"/>
<polyline class="arc" points="1878.0,505.0 1890.0,505.0 1923.0,505.0" fill="none" marker-end="url(#arrow)"/>
<polyline class="arc" points="1977.0,505.0 2010.0,505.0 2022.0,505.0" fill="none" marker-end="url(#arrow)"/>
<polyline class="arc" points="2118.0,505.0 2130.0,505.0 2163.0,505.0" fill="none" marker-end="url(#arrow)"/>
<polyline class="arc" points="2217.0,505.0 2250.0,505.0 2262.0,505.0" fill="none" marker-end="url(#arrow)"/>
<polyline class="arc" points="2358.0,505.0 2370.0,505.0 2403.0,505.0" fill="none" marker-end="url(#arrow)"/>
<polyline class="arc" points="2217.0,255.0 2370.0,255.0 2370.0,380.0 2502.0,380.0" fill="none" marker-end="url(#arrow)"/>
<polyline class="arc" points="2457.0,505.0 2490.0,505.0 2490.0,380.0 2502.0,380.0" fill="none" marker-end="url(#arrow)"/>
<polyline class="arc" points="2598.0,380.0 2610.0,380.0 2643.0,380.0" fill="none" marker-end="url(#arrow)"/>
<polyline class="arc" points="2697.0,380.0 2730.0,380.0 2742.0,380.0" fill="none" marker-end="url(#arrow)"/>
<polyline class="arc" points="2838.0,380.0 2850.0,380.0 2883.0,380.0" fill="none" marker-end="url(#arrow)"/>
<polyline class="arc" points="2937.0,380.0 2970.0,380.0 2970.0,255.0 2982.0,255.0" fill="none" marker-end="url(#arrow)"/>
<polyline class="arc" points="3078.0,255.0 3090.0,255.0 3123.0,255.0" fill="none" marker-end="url(#arrow)"/>
<polyline class="arc" points="3177.0,255.0 3210.0,255.0 3222.0,255.0" fill="none" marker-end="url(#arrow)"/>
<polyline class="arc" points="3318.0,255.0 3330.0,255.0 3363.0,255.0" fill="none" marker-end="url(#arrow)"/>
<polyline class="arc" points="2937.0,380.0 2970.0,380.0 2970.0,505.0 2982.0,505.0" fill="none" marker-end="url(#arrow)"/>
<polyline class="arc" points="3078.0,505.0 3090.0,505.0 3123.0,505.0" fill="none" marker-end="url(#arrow)"/>
<polyline class="arc" points="3177.0,505.0 3210.0,505.0 3222.0,505.0" fill="none" marker-end="url(#arrow)"/>
<polyline class="arc" points="3318.0,505.0 3330.0,505.0 3363.0,505.0" fill="none" marker-end="url(#arrow)"/>
<polyline class="arc" points="3417.0,505.0 3450.0,505.0 3462.0,505.0" fill="none" marker-end="url(#arrow)"/>
<polyline class="arc" points="3558.0,505.0 3570.0,505.0 3603.0,505.0" fill="none" marker-end="url(#arrow)"/>
<polyline class="arc" points="3657.0,505.0 3690.0,505.0 3702.0,505.0" fill="none" marker-end="url(#arrow)"/>
<polyline class="arc" points="3798.0,505.0 3810.0,505.0 3810.0,575.0 2850.0,575.0 2850.0,380.0 2883.0,380.0" fill="none" marker-end="url(#arrow)"/>
<circle class="place" cx="70.0" cy="285.0" r="27" stroke-width="3"/>
<text x="70.0" y="332.0" text-anchor="middle" font-size="11" font-weight="400"><tspan x="70.0" dy="0">Checkout</tspan><tspan x="70.0" dy="13">submitted</tspan></text>
<circle class="place" cx="280.0" cy="285.0" r="27" stroke-width="1.8"/>
<text x="280.0" y="332.0" text-anchor="middle" font-size="11" font-weight="400"><tspan x="280.0" dy="0">Order</tspan><tspan x="280.0" dy="13">validated</tspan></text>
<circle class="place" cx="510.0" cy="190.0" r="27" stroke-width="1.8"/>
<text x="510.0" y="237.0" text-anchor="middle" font-size="11" font-weight="400"><tspan x="510.0" dy="0">Stock check</tspan><tspan x="510.0" dy="13">ready</tspan></text>
<circle class="place" cx="510.0" cy="380.0" r="27" stroke-width="1.8"/>
<text x="510.0" y="427.0" text-anchor="middle" font-size="11" font-weight="400"><tspan x="510.0" dy="0">Payment check</tspan><tspan x="510.0" dy="13">ready</tspan></text>
<circle class="place" cx="750.0" cy="190.0" r="27" stroke-width="1.8"/>
<text x="750.0" y="237.0" text-anchor="middle" font-size="11" font-weight="400">Stock checked</text>
<circle class="place" cx="750.0" cy="380.0" r="27" stroke-width="1.8"/>
<text x="750.0" y="427.0" text-anchor="middle" font-size="11" font-weight="400"><tspan x="750.0" dy="0">Payment</tspan><tspan x="750.0" dy="13">checked</tspan></text>
<circle class="place" cx="990.0" cy="285.0" r="27" stroke-width="1.8"/>
<text x="990.0" y="332.0" text-anchor="middle" font-size="11" font-weight="400">Order decision</text>
<circle class="place" cx="1230.0" cy="160.0" r="27" stroke-width="1.8"/>
<text x="1230.0" y="207.0" text-anchor="middle" font-size="11" font-weight="400">Reject path</text>
<circle class="place" cx="1470.0" cy="160.0" r="27" stroke-width="3"/>
<text x="1470.0" y="207.0" text-anchor="middle" font-size="11" font-weight="400">Order rejected</text>
<circle class="place" cx="1230.0" cy="380.0" r="27" stroke-width="1.8"/>
<text x="1230.0" y="427.0" text-anchor="middle" font-size="11" font-weight="400"><tspan x="1230.0" dy="0">Ready to</tspan><tspan x="1230.0" dy="13">reserve</tspan></text>
<circle class="place" cx="1470.0" cy="380.0" r="27" stroke-width="1.8"/>
<text x="1470.0" y="427.0" text-anchor="middle" font-size="11" font-weight="400"><tspan x="1470.0" dy="0">Fulfillment</tspan><tspan x="1470.0" dy="13">reserved</tspan></text>
<circle class="place" cx="1710.0" cy="255.0" r="27" stroke-width="1.8"/>
<text x="1710.0" y="302.0" text-anchor="middle" font-size="11" font-weight="400">Invoice branch</text>
<circle class="place" cx="1710.0" cy="505.0" r="27" stroke-width="1.8"/>
<text x="1710.0" y="552.0" text-anchor="middle" font-size="11" font-weight="400">Label branch</text>
<circle class="place" cx="1950.0" cy="255.0" r="27" stroke-width="1.8"/>
<text x="1950.0" y="302.0" text-anchor="middle" font-size="11" font-weight="400"><tspan x="1950.0" dy="0">Invoice</tspan><tspan x="1950.0" dy="13">emitted</tspan></text>
<circle class="place" cx="2190.0" cy="255.0" r="27" stroke-width="1.8"/>
<text x="2190.0" y="302.0" text-anchor="middle" font-size="11" font-weight="400"><tspan x="2190.0" dy="0">Payment</tspan><tspan x="2190.0" dy="13">received</tspan></text>
<circle class="place" cx="1950.0" cy="505.0" r="27" stroke-width="1.8"/>
<text x="1950.0" y="552.0" text-anchor="middle" font-size="11" font-weight="400">Label created</text>
<circle class="place" cx="2190.0" cy="505.0" r="27" stroke-width="1.8"/>
<text x="2190.0" y="552.0" text-anchor="middle" font-size="11" font-weight="400">Packed</text>
<circle class="place" cx="2430.0" cy="505.0" r="27" stroke-width="1.8"/>
<text x="2430.0" y="552.0" text-anchor="middle" font-size="11" font-weight="400">Shipped</text>
<circle class="place" cx="2670.0" cy="380.0" r="27" stroke-width="1.8"/>
<text x="2670.0" y="427.0" text-anchor="middle" font-size="11" font-weight="400">Tracking ready</text>
<circle class="place" cx="2910.0" cy="380.0" r="27" stroke-width="1.8"/>
<text x="2910.0" y="427.0" text-anchor="middle" font-size="11" font-weight="400"><tspan x="2910.0" dy="0">Waiting SLA</tspan><tspan x="2910.0" dy="13">event</tspan></text>
<circle class="place" cx="3150.0" cy="505.0" r="27" stroke-width="1.8"/>
<text x="3150.0" y="552.0" text-anchor="middle" font-size="11" font-weight="400">Delay active</text>
<circle class="place" cx="3390.0" cy="505.0" r="27" stroke-width="1.8"/>
<text x="3390.0" y="552.0" text-anchor="middle" font-size="11" font-weight="400">Complaint open</text>
<circle class="place" cx="3630.0" cy="505.0" r="27" stroke-width="1.8"/>
<text x="3630.0" y="552.0" text-anchor="middle" font-size="11" font-weight="400"><tspan x="3630.0" dy="0">Customer</tspan><tspan x="3630.0" dy="13">notified</tspan></text>
<circle class="place" cx="3150.0" cy="255.0" r="27" stroke-width="1.8"/>
<text x="3150.0" y="302.0" text-anchor="middle" font-size="11" font-weight="400"><tspan x="3150.0" dy="0">Delivery</tspan><tspan x="3150.0" dy="13">confirmed</tspan></text>
<circle class="place" cx="3390.0" cy="255.0" r="27" stroke-width="3"/>
<text x="3390.0" y="302.0" text-anchor="middle" font-size="11" font-weight="400">Case closed</text>
<rect class="transition" x="122.0" y="265.0" width="96" height="40" rx="5" ry="5"/>
<text x="170.0" y="283.0" text-anchor="middle" font-size="10" font-weight="400"><tspan x="170.0" dy="0">Validate</tspan><tspan x="170.0" dy="12">order</tspan></text>
<rect class="transition" x="342.0" y="265.0" width="96" height="40" rx="5" ry="5"/>
<text x="390.0" y="283.0" text-anchor="middle" font-size="10" font-weight="400"><tspan x="390.0" dy="0">Automated</tspan><tspan x="390.0" dy="12">checks split</tspan></text>
<rect class="transition" x="582.0" y="170.0" width="96" height="40" rx="5" ry="5"/>
<text x="630.0" y="194.0" text-anchor="middle" font-size="10" font-weight="400">Check stock</text>
<rect class="transition" x="582.0" y="360.0" width="96" height="40" rx="5" ry="5"/>
<text x="630.0" y="378.0" text-anchor="middle" font-size="10" font-weight="400"><tspan x="630.0" dy="0">Authorize</tspan><tspan x="630.0" dy="12">payment</tspan></text>
<rect class="transition" x="822.0" y="265.0" width="96" height="40" rx="5" ry="5"/>
<text x="870.0" y="289.0" text-anchor="middle" font-size="10" font-weight="400">Checks join</text>
<rect class="transition" x="1062.0" y="140.0" width="96" height="40" rx="5" ry="5"/>
<text x="1110.0" y="164.0" text-anchor="middle" font-size="10" font-weight="400">Invalid order</text>
<rect class="transition" x="1302.0" y="140.0" width="96" height="40" rx="5" ry="5"/>
<text x="1350.0" y="158.0" text-anchor="middle" font-size="10" font-weight="400"><tspan x="1350.0" dy="0">Notify</tspan><tspan x="1350.0" dy="12">rejection</tspan></text>
<rect class="transition" x="1062.0" y="360.0" width="96" height="40" rx="5" ry="5"/>
<text x="1110.0" y="384.0" text-anchor="middle" font-size="10" font-weight="400">Valid order</text>
<rect class="transition" x="1302.0" y="360.0" width="96" height="40" rx="5" ry="5"/>
<text x="1350.0" y="378.0" text-anchor="middle" font-size="10" font-weight="400"><tspan x="1350.0" dy="0">Reserve</tspan><tspan x="1350.0" dy="12">fulfillment</tspan></text>
<rect class="transition" x="1542.0" y="360.0" width="96" height="40" rx="5" ry="5"/>
<text x="1590.0" y="378.0" text-anchor="middle" font-size="10" font-weight="400"><tspan x="1590.0" dy="0">Fulfillment</tspan><tspan x="1590.0" dy="12">split</tspan></text>
<rect class="transition" x="1782.0" y="235.0" width="96" height="40" rx="5" ry="5"/>
<text x="1830.0" y="259.0" text-anchor="middle" font-size="10" font-weight="400">Emit invoice</text>
<rect class="transition" x="2022.0" y="235.0" width="96" height="40" rx="5" ry="5"/>
<text x="2070.0" y="253.0" text-anchor="middle" font-size="10" font-weight="400"><tspan x="2070.0" dy="0">Receive</tspan><tspan x="2070.0" dy="12">payment</tspan></text>
<rect class="transition" x="1782.0" y="485.0" width="96" height="40" rx="5" ry="5"/>
<text x="1830.0" y="509.0" text-anchor="middle" font-size="10" font-weight="400">Create label</text>
<rect class="transition" x="2022.0" y="485.0" width="96" height="40" rx="5" ry="5"/>
<text x="2070.0" y="509.0" text-anchor="middle" font-size="10" font-weight="400">Pack order</text>
<rect class="transition" x="2262.0" y="485.0" width="96" height="40" rx="5" ry="5"/>
<text x="2310.0" y="509.0" text-anchor="middle" font-size="10" font-weight="400">Ship product</text>
<rect class="transition" x="2502.0" y="360.0" width="96" height="40" rx="5" ry="5"/>
<text x="2550.0" y="378.0" text-anchor="middle" font-size="10" font-weight="400"><tspan x="2550.0" dy="0">Fulfillment</tspan><tspan x="2550.0" dy="12">join</tspan></text>
<rect class="transition" x="2742.0" y="360.0" width="96" height="40" rx="5" ry="5"/>
<text x="2790.0" y="378.0" text-anchor="middle" font-size="10" font-weight="400"><tspan x="2790.0" dy="0">Track</tspan><tspan x="2790.0" dy="12">shipment</tspan></text>
<rect class="transition" x="2982.0" y="235.0" width="96" height="40" rx="5" ry="5"/>
<text x="3030.0" y="247.0" text-anchor="middle" font-size="10" font-weight="400"><tspan x="3030.0" dy="0">Message:</tspan><tspan x="3030.0" dy="12">delivery</tspan><tspan x="3030.0" dy="12">confirmed</tspan></text>
<rect class="transition" x="2982.0" y="485.0" width="96" height="40" rx="5" ry="5"/>
<text x="3030.0" y="503.0" text-anchor="middle" font-size="10" font-weight="400"><tspan x="3030.0" dy="0">Timer: SLA</tspan><tspan x="3030.0" dy="12">breached</tspan></text>
<rect class="transition" x="3222.0" y="485.0" width="96" height="40" rx="5" ry="5"/>
<text x="3270.0" y="503.0" text-anchor="middle" font-size="10" font-weight="400"><tspan x="3270.0" dy="0">Open</tspan><tspan x="3270.0" dy="12">complaint</tspan></text>
<rect class="transition" x="3462.0" y="485.0" width="96" height="40" rx="5" ry="5"/>
<text x="3510.0" y="503.0" text-anchor="middle" font-size="10" font-weight="400"><tspan x="3510.0" dy="0">Notify</tspan><tspan x="3510.0" dy="12">customer</tspan></text>
<rect class="transition" x="3702.0" y="485.0" width="96" height="40" rx="5" ry="5"/>
<text x="3750.0" y="503.0" text-anchor="middle" font-size="10" font-weight="400"><tspan x="3750.0" dy="0">Expedite</tspan><tspan x="3750.0" dy="12">courier</tspan></text>
<rect class="transition" x="3222.0" y="235.0" width="96" height="40" rx="5" ry="5"/>
<text x="3270.0" y="259.0" text-anchor="middle" font-size="10" font-weight="400">Archive order</text>
</svg>
