<svg xmlns="http://www.w3.org/2000/svg" width="3370" height="1385" viewBox="0 0 3370 1385">
<defs>
<marker id="arrow" markerWidth="10" markerHeight="10" refX="9" refY="3" orient="auto" markerUnits="strokeWidth">
<path d="M0,0 L0,6 L9,3 z" fill="#20242a"/>
</marker>
<marker id="msgArrow" markerWidth="10" markerHeight="10" refX="9" refY="3" orient="auto" markerUnits="strokeWidth">
<path d="M0,0 L0,6 L9,3 z" fill="#20242a"/>
</marker>
<marker id="assocArrow" markerWidth="8" markerHeight="8" refX="7" refY="3" orient="auto" markerUnits="strokeWidth">
<path d="M0,0 L0,6 L7,3 z" fill="#64748b"/>
</marker>
</defs>
<style>
text{font-family:Arial,Helvetica,sans-serif;fill:#20242a}.flow{stroke:#20242a;stroke-width:2.1;stroke-linejoin:round;stroke-linecap:round}.message-flow{stroke:#20242a;stroke-width:1.9;stroke-dasharray:10 6;stroke-linejoin:round;stroke-linecap:round}.assoc{stroke:#64748b;stroke-width:1.5;stroke-dasharray:5 4;stroke-linejoin:round;stroke-linecap:round}.pool-label{fill:#334155;font-weight:700}.lane-label{fill:#0f766e;font-weight:700}.pool{fill:#ffffff;stroke:#334155;stroke-width:2.1}.pool-alt{fill:#f8fafc;stroke:#334155;stroke-width:2.1}.lane{fill:#f8fafc;stroke:#cbd5e1;stroke-width:1.2}.lane-alt{fill:#ffffff;stroke:#cbd5e1;stroke-width:1.2}.flow-label{fill:#596579;font-size:12px}.message-label{fill:#20242a;font-size:12px}.artifact-label{fill:#475569;font-size:11px}.label-bg{fill:#fff;opacity:.94}
</style>
<rect x="0" y="0" width="3370.0" height="1385.0" fill="#fff"/>
<rect class="pool" x="16" y="18.0" width="3338.0" height="122.0"/>
<text class="pool-label" x="36" y="79.0" text-anchor="middle" font-size="14" transform="rotate(-90 36 79.0)">Customer</text>
<rect class="pool-alt" x="16" y="155.0" width="3338.0" height="420.0"/>
<text class="pool-label" x="36" y="365.0" text-anchor="middle" font-size="14" transform="rotate(-90 36 365.0)">E-Commerce Operations</text>
<rect class="lane" x="58" y="155.0" width="3296.0" height="245.0"/>
<text x="130.0" y="273.5" text-anchor="middle" font-size="13" font-weight="700"><tspan x="130.0" dy="0">Marketplace</tspan><tspan x="130.0" dy="15">system</tspan></text>
<rect class="lane-alt" x="58" y="405.0" width="3296.0" height="170.0"/>
<text x="130.0" y="486.0" text-anchor="middle" font-size="13" font-weight="700"><tspan x="130.0" dy="0">Customer</tspan><tspan x="130.0" dy="15">support</tspan></text>
<rect class="pool" x="16" y="610.0" width="3338.0" height="180.0"/>
<text class="pool-label" x="36" y="700.0" text-anchor="middle" font-size="14" transform="rotate(-90 36 700.0)">Payment Service</text>
<rect class="pool-alt" x="16" y="825.0" width="3338.0" height="185.0"/>
<text class="pool-label" x="36" y="917.5" text-anchor="middle" font-size="14" transform="rotate(-90 36 917.5)">Warehouse/Fulfillment</text>
<rect class="pool" x="16" y="1045.0" width="3338.0" height="205.0"/>
<text class="pool-label" x="36" y="1147.5" text-anchor="middle" font-size="14" transform="rotate(-90 36 1147.5)">Courier/Shipment</text>
<polyline class="assoc" points="328.0,88.0 263.0,50.0" fill="none" marker-end="url(#assocArrow)"/>
<polyline class="assoc" points="413.0,300.0 445.0,217.0" fill="none" marker-end="url(#assocArrow)"/>
<polyline class="assoc" points="707.0,957.0 735.0,882.0" fill="none" marker-end="url(#assocArrow)"/>
<polyline class="assoc" points="735.0,662.0 763.0,740.0" fill="none" marker-end="url(#assocArrow)"/>
<polyline class="assoc" points="1775.0,662.0 1743.0,740.0" fill="none" marker-end="url(#assocArrow)"/>
<polyline class="assoc" points="1775.0,882.0 1743.0,955.0" fill="none" marker-end="url(#assocArrow)"/>
<polyline class="assoc" points="2135.0,1112.0 2107.0,1192.0" fill="none" marker-end="url(#assocArrow)"/>
<polyline class="assoc" points="2845.0,452.0 2815.0,452.0 2815.0,525.0 2723.0,525.0" fill="none" marker-end="url(#assocArrow)"/>
<polyline class="assoc" points="2935.0,217.0 2965.0,217.0 2965.0,282.0 3037.0,282.0" fill="none" marker-end="url(#assocArrow)"/>
<polyline class="message-flow" points="344.3,106.0 416.0,185.0" fill="none" marker-end="url(#msgArrow)"/>
<polyline class="flow" points="510.0,217.0 535.0,217.0 535.0,217.0 560.0,217.0" fill="none" marker-end="url(#arrow)"/>
<polyline class="flow" points="610.0,217.0 640.0,217.0 640.0,182.0 670.0,182.0" fill="none" marker-end="url(#arrow)"/>
<polyline class="flow" points="610.0,217.0 640.0,217.0 640.0,282.0 670.0,282.0" fill="none" marker-end="url(#arrow)"/>
<polyline class="flow" points="800.0,182.0 825.0,182.0 825.0,182.0 850.0,182.0" fill="none" marker-end="url(#arrow)"/>
<polyline class="flow" points="800.0,282.0 825.0,282.0 825.0,282.0 850.0,282.0" fill="none" marker-end="url(#arrow)"/>
<polyline class="flow" points="980.0,182.0 1005.0,182.0 1005.0,217.0 1030.0,217.0" fill="none" marker-end="url(#arrow)"/>
<polyline class="flow" points="980.0,282.0 1005.0,282.0 1005.0,217.0 1030.0,217.0" fill="none" marker-end="url(#arrow)"/>
<polyline class="message-flow" points="735.0,314.0 735.0,850.0" fill="none" marker-end="url(#msgArrow)"/>
<rect class="label-bg" x="690.5" y="827.0" width="89.0" height="18" rx="2" ry="2"/>
<text class="message-label" x="735.0" y="842.0" text-anchor="middle">Stock query</text>
<polyline class="message-flow" points="744.6,850.0 905.4,314.0" fill="none" marker-end="url(#msgArrow)"/>
<rect class="label-bg" x="857.4" y="291.0" width="96.0" height="18" rx="2" ry="2"/>
<text class="message-label" x="905.4" y="306.0" text-anchor="middle">Stock status</text>
<polyline class="message-flow" points="735.0,214.0 735.0,630.0" fill="none" marker-end="url(#msgArrow)"/>
<rect class="label-bg" x="669.5" y="607.0" width="131.0" height="18" rx="2" ry="2"/>
<text class="message-label" x="735.0" y="622.0" text-anchor="middle">Payment pre-check</text>
<polyline class="message-flow" points="747.0,630.0 903.0,214.0" fill="none" marker-end="url(#msgArrow)"/>
<rect class="label-bg" x="841.0" y="191.0" width="124.0" height="18" rx="2" ry="2"/>
<text class="message-label" x="903.0" y="206.0" text-anchor="middle">Pre-check status</text>
<polyline class="flow" points="1080.0,217.0 1105.0,217.0 1105.0,217.0 1130.0,217.0" fill="none" marker-end="url(#arrow)"/>
<polyline class="flow" points="1260.0,217.0 1285.0,217.0 1285.0,217.0 1310.0,217.0" fill="none" marker-end="url(#arrow)"/>
<polyline class="flow" points="1360.0,217.0 1385.0,217.0 1385.0,187.0 1410.0,187.0" fill="none" marker-end="url(#arrow)"/>
<rect class="label-bg" x="1359.5" y="194.0" width="61.0" height="18" rx="2" ry="2"/>
<text class="flow-label" x="1390.0" y="209.0" text-anchor="middle">Invalid</text>
<polyline class="flow" points="1540.0,187.0 1565.0,187.0 1565.0,187.0 1590.0,187.0" fill="none" marker-end="url(#arrow)"/>
<polyline class="flow" points="1335.0,242.0 1335.0,264.5 1410.0,264.5 1410.0,287.0" fill="none" marker-end="url(#arrow)"/>
<rect class="label-bg" x="1345.5" y="245.0" width="47.0" height="18" rx="2" ry="2"/>
<text class="flow-label" x="1369.0" y="260.0" text-anchor="middle">Valid</text>
<polyline class="flow" points="1540.0,287.0 1565.0,287.0 1565.0,287.0 1590.0,287.0" fill="none" marker-end="url(#arrow)"/>
<polyline class="flow" points="1640.0,287.0 1675.0,287.0 1675.0,237.0 1710.0,237.0" fill="none" marker-end="url(#arrow)"/>
<polyline class="flow" points="1840.0,237.0 1950.0,237.0 1950.0,237.0 2060.0,237.0" fill="none" marker-end="url(#arrow)"/>
<polyline class="flow" points="2190.0,237.0 2225.0,237.0 2225.0,287.0 2260.0,287.0" fill="none" marker-end="url(#arrow)"/>
<polyline class="flow" points="1640.0,287.0 1675.0,287.0 1675.0,347.0 1710.0,347.0" fill="none" marker-end="url(#arrow)"/>
<polyline class="flow" points="1840.0,347.0 1950.0,347.0 1950.0,347.0 2060.0,347.0" fill="none" marker-end="url(#arrow)"/>
<polyline class="flow" points="2190.0,347.0 2225.0,347.0 2225.0,287.0 2260.0,287.0" fill="none" marker-end="url(#arrow)"/>
<polyline class="message-flow" points="1775.0,269.0 1775.0,630.0" fill="none" marker-end="url(#msgArrow)"/>
<rect class="label-bg" x="1716.5" y="607.0" width="117.0" height="18" rx="2" ry="2"/>
<text class="message-label" x="1775.0" y="622.0" text-anchor="middle">Invoice request</text>
<polyline class="flow" points="1840.0,662.0 1865.0,662.0 1865.0,662.0 1890.0,662.0" fill="none" marker-end="url(#arrow)"/>
<polyline class="message-flow" points="1967.8,630.0 2112.2,269.0" fill="none" marker-end="url(#msgArrow)"/>
<rect class="label-bg" x="2057.2" y="246.0" width="110.0" height="18" rx="2" ry="2"/>
<text class="message-label" x="2112.2" y="261.0" text-anchor="middle">Payment status</text>
<polyline class="message-flow" points="1775.0,379.0 1775.0,850.0" fill="none" marker-end="url(#msgArrow)"/>
<rect class="label-bg" x="1723.5" y="827.0" width="103.0" height="18" rx="2" ry="2"/>
<text class="message-label" x="1775.0" y="842.0" text-anchor="middle">Label request</text>
<polyline class="flow" points="1840.0,882.0 1865.0,882.0 1865.0,882.0 1890.0,882.0" fill="none" marker-end="url(#arrow)"/>
<polyline class="message-flow" points="1980.0,914.0 2110.0,1080.0" fill="none" marker-end="url(#msgArrow)"/>
<rect class="label-bg" x="2055.0" y="1057.0" width="110.0" height="18" rx="2" ry="2"/>
<text class="message-label" x="2110.0" y="1072.0" text-anchor="middle">Parcel handoff</text>
<polyline class="message-flow" points="2134.6,1080.0 2125.4,379.0" fill="none" marker-end="url(#msgArrow)"/>
<rect class="label-bg" x="2066.9" y="356.0" width="117.0" height="18" rx="2" ry="2"/>
<text class="message-label" x="2125.4" y="371.0" text-anchor="middle">Shipment status</text>
<polyline class="flow" points="2310.0,287.0 2335.0,287.0 2335.0,217.0 2360.0,217.0" fill="none" marker-end="url(#arrow)"/>
<polyline class="flow" points="2490.0,217.0 2525.0,217.0 2525.0,217.0 2560.0,217.0" fill="none" marker-end="url(#arrow)"/>
<polyline class="flow" points="2610.0,217.0 2645.0,217.0 2645.0,203.0 2680.0,203.0" fill="none" marker-end="url(#arrow)"/>
<rect class="label-bg" x="2602.5" y="194.0" width="75.0" height="18" rx="2" ry="2"/>
<text class="flow-label" x="2640.0" y="209.0" text-anchor="middle">Delivered</text>
<polyline class="flow" points="2585.0,242.0 2585.0,340.0 2680.0,340.0 2680.0,438.0" fill="none" marker-end="url(#arrow)"/>
<rect class="label-bg" x="2599.0" y="245.0" width="40.0" height="18" rx="2" ry="2"/>
<text class="flow-label" x="2619.0" y="260.0" text-anchor="middle">Late</text>
<polyline class="flow" points="2716.0,438.0 2748.0,438.0 2748.0,452.0 2780.0,452.0" fill="none" marker-end="url(#arrow)"/>
<polyline class="flow" points="2910.0,452.0 2930.0,452.0 2930.0,452.0 2950.0,452.0" fill="none" marker-end="url(#arrow)"/>
<polyline class="flow" points="3080.0,452.0 3100.0,452.0 3100.0,452.0 3120.0,452.0" fill="none" marker-end="url(#arrow)"/>
<polyline class="flow" points="3250.0,452.0 3295.0,452.0 3295.0,402.0 2305.0,402.0 2305.0,217.0 2360.0,217.0" fill="none" marker-end="url(#arrow)"/>
<polyline class="flow" points="2716.0,203.0 2793.0,203.0 2793.0,217.0 2870.0,217.0" fill="none" marker-end="url(#arrow)"/>
<polyline class="flow" points="3000.0,217.0 3025.0,217.0 3025.0,217.0 3050.0,217.0" fill="none" marker-end="url(#arrow)"/>
<path d="M 230.0 25.0 H 284.0 L 296.0 37.0 V 75.0 H 230.0 Z" fill="#fffef6" stroke="#20242a" stroke-width="1.8"/>
<path d="M 284.0 25.0 V 37.0 H 296.0" fill="none" stroke="#20242a" stroke-width="1.4"/>
<text x="263.0" y="47.0" text-anchor="middle" font-size="10" font-weight="400"><tspan x="263.0" dy="0">Checkout/order</tspan><tspan x="263.0" dy="12">record</tspan></text>
<path d="M 380.0 275.0 H 434.0 L 446.0 287.0 V 325.0 H 380.0 Z" fill="#fffef6" stroke="#20242a" stroke-width="1.8"/>
<path d="M 434.0 275.0 V 287.0 H 446.0" fill="none" stroke="#20242a" stroke-width="1.4"/>
<text x="413.0" y="297.0" text-anchor="middle" font-size="10" font-weight="400"><tspan x="413.0" dy="0">Customer</tspan><tspan x="413.0" dy="12">profile</tspan></text>
<path d="M 670.0 939.0 C 670.0 930.0, 744.0 930.0, 744.0 939.0 V 975.0 C 744.0 984.0, 670.0 984.0, 670.0 975.0 Z" fill="#f0fdfa" stroke="#20242a" stroke-width="1.8"/>
<ellipse cx="707.0" cy="939.0" rx="37.0" ry="9" fill="none" stroke="#20242a" stroke-width="1.4"/>
<text x="707.0" y="956.0" text-anchor="middle" font-size="10" font-weight="400"><tspan x="707.0" dy="0">Inventory</tspan><tspan x="707.0" dy="12">record</tspan></text>
<path d="M 730.0 715.0 H 784.0 L 796.0 727.0 V 765.0 H 730.0 Z" fill="#fffef6" stroke="#20242a" stroke-width="1.8"/>
<path d="M 784.0 715.0 V 727.0 H 796.0" fill="none" stroke="#20242a" stroke-width="1.4"/>
<text x="763.0" y="737.0" text-anchor="middle" font-size="10" font-weight="400"><tspan x="763.0" dy="0">Payment</tspan><tspan x="763.0" dy="12">authorization</tspan></text>
<path d="M 1710.0 715.0 H 1764.0 L 1776.0 727.0 V 765.0 H 1710.0 Z" fill="#fffef6" stroke="#20242a" stroke-width="1.8"/>
<path d="M 1764.0 715.0 V 727.0 H 1776.0" fill="none" stroke="#20242a" stroke-width="1.4"/>
<text x="1743.0" y="743.0" text-anchor="middle" font-size="10" font-weight="400">Invoice</text>
<path d="M 1710.0 930.0 H 1764.0 L 1776.0 942.0 V 980.0 H 1710.0 Z" fill="#fffef6" stroke="#20242a" stroke-width="1.8"/>
<path d="M 1764.0 930.0 V 942.0 H 1776.0" fill="none" stroke="#20242a" stroke-width="1.4"/>
<text x="1743.0" y="958.0" text-anchor="middle" font-size="10" font-weight="400">Shipping label</text>
<path d="M 2070.0 1174.0 C 2070.0 1165.0, 2144.0 1165.0, 2144.0 1174.0 V 1210.0 C 2144.0 1219.0, 2070.0 1219.0, 2070.0 1210.0 Z" fill="#f0fdfa" stroke="#20242a" stroke-width="1.8"/>
<ellipse cx="2107.0" cy="1174.0" rx="37.0" ry="9" fill="none" stroke="#20242a" stroke-width="1.4"/>
<text x="2107.0" y="1191.0" text-anchor="middle" font-size="10" font-weight="400"><tspan x="2107.0" dy="0">Tracking</tspan><tspan x="2107.0" dy="12">record</tspan></text>
<path d="M 2690.0 500.0 H 2744.0 L 2756.0 512.0 V 550.0 H 2690.0 Z" fill="#fffef6" stroke="#20242a" stroke-width="1.8"/>
<path d="M 2744.0 500.0 V 512.0 H 2756.0" fill="none" stroke="#20242a" stroke-width="1.4"/>
<text x="2723.0" y="528.0" text-anchor="middle" font-size="10" font-weight="400">Complaint case</text>
<path d="M 3000.0 264.0 C 3000.0 255.0, 3074.0 255.0, 3074.0 264.0 V 300.0 C 3074.0 309.0, 3000.0 309.0, 3000.0 300.0 Z" fill="#f0fdfa" stroke="#20242a" stroke-width="1.8"/>
<ellipse cx="3037.0" cy="264.0" rx="37.0" ry="9" fill="none" stroke="#20242a" stroke-width="1.4"/>
<text x="3037.0" y="281.0" text-anchor="middle" font-size="10" font-weight="400"><tspan x="3037.0" dy="0">Audit/order</tspan><tspan x="3037.0" dy="12">archive</tspan></text>
<circle cx="328.0" cy="88.0" r="18.0" fill="#fff" stroke="#20242a" stroke-width="2"/>
<text x="328.0" y="124.0" text-anchor="middle" font-size="12" font-weight="400">Checkout submitted</text>
<rect x="380.0" y="185.0" width="130" height="64" rx="8" ry="8" fill="#fff" stroke="#20242a" stroke-width="2"/>
<text x="445.0" y="216.0" text-anchor="middle" font-size="13" font-weight="400">Validate order</text>
<polygon points="585.0,192.0 610.0,217.0 585.0,242.0 560.0,217.0" fill="#fff" stroke="#20242a" stroke-width="2"/>
<text x="585.0" y="222.0" text-anchor="middle" font-size="18" font-weight="700">+</text>
<text x="585.0" y="260.0" text-anchor="middle" font-size="12" font-weight="400">Automated checks</text>
<rect x="670.0" y="150.0" width="130" height="64" rx="8" ry="8" fill="#fff" stroke="#20242a" stroke-width="2"/>
<text x="735.0" y="174.0" text-anchor="middle" font-size="13" font-weight="400"><tspan x="735.0" dy="0">Send payment pre-</tspan><tspan x="735.0" dy="15">check</tspan></text>
<rect x="670.0" y="250.0" width="130" height="64" rx="8" ry="8" fill="#fff" stroke="#20242a" stroke-width="2"/>
<text x="735.0" y="281.0" text-anchor="middle" font-size="13" font-weight="400">Send stock query</text>
<rect x="850.0" y="150.0" width="130" height="64" rx="8" ry="8" fill="#fff" stroke="#20242a" stroke-width="2"/>
<text x="915.0" y="174.0" text-anchor="middle" font-size="13" font-weight="400"><tspan x="915.0" dy="0">Receive pre-check</tspan><tspan x="915.0" dy="15">status</tspan></text>
<rect x="850.0" y="250.0" width="130" height="64" rx="8" ry="8" fill="#fff" stroke="#20242a" stroke-width="2"/>
<text x="915.0" y="274.0" text-anchor="middle" font-size="13" font-weight="400"><tspan x="915.0" dy="0">Receive stock</tspan><tspan x="915.0" dy="15">status</tspan></text>
<rect x="670.0" y="850.0" width="130" height="64" rx="8" ry="8" fill="#fff" stroke="#20242a" stroke-width="2"/>
<text x="735.0" y="881.0" text-anchor="middle" font-size="13" font-weight="400">Check stock</text>
<rect x="670.0" y="630.0" width="130" height="64" rx="8" ry="8" fill="#fff" stroke="#20242a" stroke-width="2"/>
<text x="735.0" y="661.0" text-anchor="middle" font-size="13" font-weight="400">Authorize payment</text>
<polygon points="1055.0,192.0 1080.0,217.0 1055.0,242.0 1030.0,217.0" fill="#fff" stroke="#20242a" stroke-width="2"/>
<text x="1055.0" y="222.0" text-anchor="middle" font-size="18" font-weight="700">+</text>
<text x="1055.0" y="260.0" text-anchor="middle" font-size="12" font-weight="400">Checks done</text>
<rect x="1130.0" y="185.0" width="130" height="64" rx="8" ry="8" fill="#fff" stroke="#20242a" stroke-width="2"/>
<text x="1195.0" y="209.0" text-anchor="middle" font-size="13" font-weight="400"><tspan x="1195.0" dy="0">Review check</tspan><tspan x="1195.0" dy="15">results</tspan></text>
<polygon points="1335.0,192.0 1360.0,217.0 1335.0,242.0 1310.0,217.0" fill="#fff" stroke="#20242a" stroke-width="2"/>
<text x="1335.0" y="222.0" text-anchor="middle" font-size="18" font-weight="700">X</text>
<text x="1335.0" y="184.0" text-anchor="middle" font-size="12" font-weight="400">Order valid?</text>
<rect x="1410.0" y="155.0" width="130" height="64" rx="8" ry="8" fill="#fff" stroke="#20242a" stroke-width="2"/>
<text x="1475.0" y="186.0" text-anchor="middle" font-size="13" font-weight="400">Notify rejection</text>
<circle cx="1608.0" cy="187.0" r="18.0" fill="#fff" stroke="#20242a" stroke-width="4"/>
<text x="1608.0" y="223.0" text-anchor="middle" font-size="12" font-weight="400">Order rejected</text>
<rect x="1410.0" y="255.0" width="130" height="64" rx="8" ry="8" fill="#fff" stroke="#20242a" stroke-width="2"/>
<text x="1475.0" y="279.0" text-anchor="middle" font-size="13" font-weight="400"><tspan x="1475.0" dy="0">Reserve</tspan><tspan x="1475.0" dy="15">fulfillment</tspan></text>
<polygon points="1615.0,262.0 1640.0,287.0 1615.0,312.0 1590.0,287.0" fill="#fff" stroke="#20242a" stroke-width="2"/>
<text x="1615.0" y="292.0" text-anchor="middle" font-size="18" font-weight="700">+</text>
<text x="1615.0" y="330.0" text-anchor="middle" font-size="12" font-weight="400">Fulfill</text>
<rect x="1710.0" y="205.0" width="130" height="64" rx="8" ry="8" fill="#fff" stroke="#20242a" stroke-width="2"/>
<text x="1775.0" y="229.0" text-anchor="middle" font-size="13" font-weight="400"><tspan x="1775.0" dy="0">Send invoice</tspan><tspan x="1775.0" dy="15">request</tspan></text>
<rect x="1710.0" y="315.0" width="130" height="64" rx="8" ry="8" fill="#fff" stroke="#20242a" stroke-width="2"/>
<text x="1775.0" y="339.0" text-anchor="middle" font-size="13" font-weight="400"><tspan x="1775.0" dy="0">Send label</tspan><tspan x="1775.0" dy="15">request</tspan></text>
<rect x="2060.0" y="205.0" width="130" height="64" rx="8" ry="8" fill="#fff" stroke="#20242a" stroke-width="2"/>
<text x="2125.0" y="229.0" text-anchor="middle" font-size="13" font-weight="400"><tspan x="2125.0" dy="0">Receive payment</tspan><tspan x="2125.0" dy="15">status</tspan></text>
<rect x="2060.0" y="315.0" width="130" height="64" rx="8" ry="8" fill="#fff" stroke="#20242a" stroke-width="2"/>
<text x="2125.0" y="339.0" text-anchor="middle" font-size="13" font-weight="400"><tspan x="2125.0" dy="0">Receive shipment</tspan><tspan x="2125.0" dy="15">status</tspan></text>
<rect x="1710.0" y="630.0" width="130" height="64" rx="8" ry="8" fill="#fff" stroke="#20242a" stroke-width="2"/>
<text x="1775.0" y="661.0" text-anchor="middle" font-size="13" font-weight="400">Emit invoice</text>
<rect x="1890.0" y="630.0" width="130" height="64" rx="8" ry="8" fill="#fff" stroke="#20242a" stroke-width="2"/>
<text x="1955.0" y="661.0" text-anchor="middle" font-size="13" font-weight="400">Receive payment</text>
<rect x="1710.0" y="850.0" width="130" height="64" rx="8" ry="8" fill="#fff" stroke="#20242a" stroke-width="2"/>
<text x="1775.0" y="881.0" text-anchor="middle" font-size="13" font-weight="400">Create label</text>
<rect x="1890.0" y="850.0" width="130" height="64" rx="8" ry="8" fill="#fff" stroke="#20242a" stroke-width="2"/>
<text x="1955.0" y="881.0" text-anchor="middle" font-size="13" font-weight="400">Pack order</text>
<rect x="2070.0" y="1080.0" width="130" height="64" rx="8" ry="8" fill="#fff" stroke="#20242a" stroke-width="2"/>
<text x="2135.0" y="1111.0" text-anchor="middle" font-size="13" font-weight="400">Ship product</text>
<polygon points="2285.0,262.0 2310.0,287.0 2285.0,312.0 2260.0,287.0" fill="#fff" stroke="#20242a" stroke-width="2"/>
<text x="2285.0" y="292.0" text-anchor="middle" font-size="18" font-weight="700">+</text>
<text x="2285.0" y="330.0" text-anchor="middle" font-size="12" font-weight="400">Sent</text>
<rect x="2360.0" y="185.0" width="130" height="64" rx="8" ry="8" fill="#fff" stroke="#20242a" stroke-width="2"/>
<text x="2425.0" y="216.0" text-anchor="middle" font-size="13" font-weight="400">Track shipment</text>
<polygon points="2585.0,192.0 2610.0,217.0 2585.0,242.0 2560.0,217.0" fill="#fff" stroke="#20242a" stroke-width="2"/>
<text x="2585.0" y="222.0" text-anchor="middle" font-size="18" font-weight="700">X</text>
<text x="2585.0" y="184.0" text-anchor="middle" font-size="12" font-weight="400">SLA status?</text>
<circle cx="2698.0" cy="203.0" r="18.0" fill="#fff" stroke="#20242a" stroke-width="2"/>
<circle cx="2698.0" cy="203.0" r="13.0" fill="none" stroke="#20242a" stroke-width="1.5"/>
<rect x="2688.0" y="196.0" width="20" height="14" fill="none" stroke="#20242a" stroke-width="1.3"/>
<path d="M 2688.0 196.0 L 2698.0 204.0 L 2708.0 196.0" fill="none" stroke="#20242a" stroke-width="1.3"/>
<text x="2698.0" y="239.0" text-anchor="middle" font-size="12" font-weight="400">Delivery confirmed</text>
<circle cx="2698.0" cy="438.0" r="18.0" fill="#fff" stroke="#20242a" stroke-width="2"/>
<circle cx="2698.0" cy="438.0" r="13.0" fill="none" stroke="#20242a" stroke-width="1.5"/>
<circle cx="2698.0" cy="438.0" r="8" fill="none" stroke="#20242a" stroke-width="1.4"/>
<line x1="2698.0" y1="438.0" x2="2698.0" y2="432.0" stroke="#20242a" stroke-width="1.4"/>
<line x1="2698.0" y1="438.0" x2="2703.0" y2="441.0" stroke="#20242a" stroke-width="1.4"/>
<text x="2698.0" y="474.0" text-anchor="middle" font-size="12" font-weight="400">SLA breached</text>
<rect x="2780.0" y="420.0" width="130" height="64" rx="8" ry="8" fill="#fff" stroke="#20242a" stroke-width="2"/>
<text x="2845.0" y="451.0" text-anchor="middle" font-size="13" font-weight="400">Open complaint</text>
<rect x="2950.0" y="420.0" width="130" height="64" rx="8" ry="8" fill="#fff" stroke="#20242a" stroke-width="2"/>
<text x="3015.0" y="451.0" text-anchor="middle" font-size="13" font-weight="400">Notify customer</text>
<rect x="3120.0" y="420.0" width="130" height="64" rx="8" ry="8" fill="#fff" stroke="#20242a" stroke-width="2"/>
<text x="3185.0" y="451.0" text-anchor="middle" font-size="13" font-weight="400">Expedite courier</text>
<rect x="2870.0" y="185.0" width="130" height="64" rx="8" ry="8" fill="#fff" stroke="#20242a" stroke-width="2"/>
<text x="2935.0" y="216.0" text-anchor="middle" font-size="13" font-weight="400">Archive order</text>
<circle cx="3068.0" cy="217.0" r="18.0" fill="#fff" stroke="#20242a" stroke-width="4"/>
<text x="3068.0" y="253.0" text-anchor="middle" font-size="12" font-weight="400">Order closed</text>
</svg>
