<svg xmlns="http://www.w3.org/2000/svg" width="3060" height="1074" viewBox="0 25 3060 1074">
<defs>
<marker id="arrow" markerWidth="10" markerHeight="10" refX="9" refY="3" orient="auto" markerUnits="strokeWidth">
<path d="M0,0 L0,6 L9,3 z" fill="#20242a"/>
</marker>
</defs>
<style>
text{font-family:Arial,Helvetica,sans-serif;fill:#20242a}.flow{stroke:#20242a;stroke-width:2.1;stroke-linejoin:round;stroke-linecap:round}.lane-label{fill:#0f766e;font-weight:700}.lane{fill:#f8fafc;stroke:#cbd5e1;stroke-width:1.4}.lane:nth-child(even){fill:#ffffff}.flow-label{fill:#596579;font-size:12px}
</style>
<rect x="0" y="-1000" width="100%" height="3000" fill="#fff"/>
<rect class="lane" x="18" y="42.0" width="3024.0" height="109.0"/>
<text x="92.0" y="92.5" text-anchor="middle" font-size="14" font-weight="700">Customer</text>
<rect class="lane" x="18" y="92.0" width="3024.0" height="445.0"/>
<text x="92.0" y="310.5" text-anchor="middle" font-size="14" font-weight="700"><tspan x="92.0" dy="0">Marketplace</tspan><tspan x="92.0" dy="16">system</tspan></text>
<rect class="lane" x="18" y="402.0" width="3024.0" height="137.0"/>
<text x="92.0" y="466.5" text-anchor="middle" font-size="14" font-weight="700">Payment service</text>
<rect class="lane" x="18" y="532.0" width="3024.0" height="137.0"/>
<text x="92.0" y="596.5" text-anchor="middle" font-size="14" font-weight="700">Warehouse</text>
<rect class="lane" x="18" y="642.0" width="3024.0" height="199.0"/>
<text x="92.0" y="737.5" text-anchor="middle" font-size="14" font-weight="700">Courier</text>
<rect class="lane" x="18" y="847.0" width="3024.0" height="137.0"/>
<text x="92.0" y="911.5" text-anchor="middle" font-size="14" font-weight="700">Customer support</text>
<polyline class="flow" points="286.0,88.0 303.0,88.0 303.0,217.0 320.0,217.0" fill="none" marker-end="url(#arrow)"/>
<polyline class="flow" points="450.0,217.0 475.0,217.0 475.0,217.0 500.0,217.0" fill="none" marker-end="url(#arrow)"/>
<polyline class="flow" points="550.0,217.0 585.0,217.0 585.0,592.0 620.0,592.0" fill="none" marker-end="url(#arrow)"/>
<polyline class="flow" points="550.0,217.0 585.0,217.0 585.0,462.0 620.0,462.0" fill="none" marker-end="url(#arrow)"/>
<polyline class="flow" points="750.0,592.0 785.0,592.0 785.0,217.0 820.0,217.0" fill="none" marker-end="url(#arrow)"/>
<polyline class="flow" points="750.0,462.0 785.0,462.0 785.0,217.0 820.0,217.0" fill="none" marker-end="url(#arrow)"/>
<polyline class="flow" points="870.0,217.0 900.0,217.0 900.0,217.0 930.0,217.0" fill="none" marker-end="url(#arrow)"/>
<polyline class="flow" points="980.0,217.0 1005.0,217.0 1005.0,152.0 1030.0,152.0" fill="none" marker-end="url(#arrow)"/>
<text class="flow-label" x="1005.0" y="146.0" text-anchor="middle">Invalid</text>
<polyline class="flow" points="1160.0,152.0 1185.0,152.0 1185.0,152.0 1210.0,152.0" fill="none" marker-end="url(#arrow)"/>
<polyline class="flow" points="980.0,217.0 1005.0,217.0 1005.0,287.0 1030.0,287.0" fill="none" marker-end="url(#arrow)"/>
<text class="flow-label" x="1005.0" y="281.0" text-anchor="middle">Valid</text>
<polyline class="flow" points="1160.0,287.0 1185.0,287.0 1185.0,287.0 1210.0,287.0" fill="none" marker-end="url(#arrow)"/>
<polyline class="flow" points="1260.0,287.0 1295.0,287.0 1295.0,462.0 1330.0,462.0" fill="none" marker-end="url(#arrow)"/>
<polyline class="flow" points="1260.0,287.0 1295.0,287.0 1295.0,592.0 1330.0,592.0" fill="none" marker-end="url(#arrow)"/>
<polyline class="flow" points="1460.0,592.0 1485.0,592.0 1485.0,592.0 1510.0,592.0" fill="none" marker-end="url(#arrow)"/>
<polyline class="flow" points="1640.0,592.0 1665.0,592.0 1665.0,722.0 1690.0,722.0" fill="none" marker-end="url(#arrow)"/>
<polyline class="flow" points="1460.0,462.0 1485.0,462.0 1485.0,462.0 1510.0,462.0" fill="none" marker-end="url(#arrow)"/>
<polyline class="flow" points="1640.0,462.0 1760.0,462.0 1760.0,467.0 1880.0,467.0" fill="none" marker-end="url(#arrow)"/>
<polyline class="flow" points="1820.0,722.0 1850.0,722.0 1850.0,467.0 1880.0,467.0" fill="none" marker-end="url(#arrow)"/>
<polyline class="flow" points="1930.0,467.0 1955.0,467.0 1955.0,217.0 1980.0,217.0" fill="none" marker-end="url(#arrow)"/>
<polyline class="flow" points="2110.0,217.0 2135.0,217.0 2135.0,217.0 2160.0,217.0" fill="none" marker-end="url(#arrow)"/>
<polyline class="flow" points="2210.0,217.0 2235.0,217.0 2235.0,217.0 2260.0,217.0" fill="none" marker-end="url(#arrow)"/>
<polyline class="flow" points="2310.0,217.0 2345.0,217.0 2345.0,688.0 2380.0,688.0" fill="none" marker-end="url(#arrow)"/>
<text class="flow-label" x="2345.0" y="682.0" text-anchor="middle">Delivered</text>
<polyline class="flow" points="2310.0,217.0 2345.0,217.0 2345.0,778.0 2380.0,778.0" fill="none" marker-end="url(#arrow)"/>
<text class="flow-label" x="2345.0" y="772.0" text-anchor="middle">Late</text>
<polyline class="flow" points="2416.0,778.0 2448.0,778.0 2448.0,907.0 2480.0,907.0" fill="none" marker-end="url(#arrow)"/>
<polyline class="flow" points="2610.0,907.0 2630.0,907.0 2630.0,907.0 2650.0,907.0" fill="none" marker-end="url(#arrow)"/>
<polyline class="flow" points="2780.0,907.0 2800.0,907.0 2800.0,907.0 2820.0,907.0" fill="none" marker-end="url(#arrow)"/>
<polyline class="flow" points="2950.0,907.0 3010.0,907.0 3010.0,1054.0 2100.0,1054.0 2100.0,217.0 2160.0,217.0" fill="none" marker-end="url(#arrow)"/>
<polyline class="flow" points="2416.0,688.0 2493.0,688.0 2493.0,217.0 2570.0,217.0" fill="none" marker-end="url(#arrow)"/>
<polyline class="flow" points="2700.0,217.0 2725.0,217.0 2725.0,217.0 2750.0,217.0" fill="none" marker-end="url(#arrow)"/>
<circle cx="268.0" cy="88.0" r="18.0" fill="#fff" stroke="#20242a" stroke-width="2"/>
<text x="268.0" y="124.0" text-anchor="middle" font-size="12" font-weight="400">Checkout submitted</text>
<rect x="320.0" y="185.0" width="130" height="64" rx="8" ry="8" fill="#fff" stroke="#20242a" stroke-width="2"/>
<text x="385.0" y="216.0" text-anchor="middle" font-size="13" font-weight="400">Validate order</text>
<polygon points="525.0,192.0 550.0,217.0 525.0,242.0 500.0,217.0" fill="#fff" stroke="#20242a" stroke-width="2"/>
<text x="525.0" y="222.0" text-anchor="middle" font-size="18" font-weight="700">+</text>
<text x="525.0" y="260.0" text-anchor="middle" font-size="12" font-weight="400">Automated checks</text>
<rect x="620.0" y="560.0" width="130" height="64" rx="8" ry="8" fill="#fff" stroke="#20242a" stroke-width="2"/>
<text x="685.0" y="591.0" text-anchor="middle" font-size="13" font-weight="400">Check stock</text>
<rect x="620.0" y="430.0" width="130" height="64" rx="8" ry="8" fill="#fff" stroke="#20242a" stroke-width="2"/>
<text x="685.0" y="461.0" text-anchor="middle" font-size="13" font-weight="400">Authorize payment</text>
<polygon points="845.0,192.0 870.0,217.0 845.0,242.0 820.0,217.0" fill="#fff" stroke="#20242a" stroke-width="2"/>
<text x="845.0" y="222.0" text-anchor="middle" font-size="18" font-weight="700">+</text>
<text x="845.0" y="260.0" text-anchor="middle" font-size="12" font-weight="400">Checks done</text>
<polygon points="955.0,192.0 980.0,217.0 955.0,242.0 930.0,217.0" fill="#fff" stroke="#20242a" stroke-width="2"/>
<text x="955.0" y="222.0" text-anchor="middle" font-size="18" font-weight="700">X</text>
<text x="955.0" y="260.0" text-anchor="middle" font-size="12" font-weight="400">Order valid?</text>
<rect x="1030.0" y="120.0" width="130" height="64" rx="8" ry="8" fill="#fff" stroke="#20242a" stroke-width="2"/>
<text x="1095.0" y="151.0" text-anchor="middle" font-size="13" font-weight="400">Notify rejection</text>
<circle cx="1228.0" cy="152.0" r="18.0" fill="#fff" stroke="#20242a" stroke-width="4"/>
<text x="1228.0" y="188.0" text-anchor="middle" font-size="12" font-weight="400">Order rejected</text>
<rect x="1030.0" y="255.0" width="130" height="64" rx="8" ry="8" fill="#fff" stroke="#20242a" stroke-width="2"/>
<text x="1095.0" y="279.0" text-anchor="middle" font-size="13" font-weight="400"><tspan x="1095.0" dy="0">Reserve</tspan><tspan x="1095.0" dy="15">fulfillment</tspan></text>
<polygon points="1235.0,262.0 1260.0,287.0 1235.0,312.0 1210.0,287.0" fill="#fff" stroke="#20242a" stroke-width="2"/>
<text x="1235.0" y="292.0" text-anchor="middle" font-size="18" font-weight="700">+</text>
<text x="1235.0" y="330.0" text-anchor="middle" font-size="12" font-weight="400">Fulfill</text>
<rect x="1330.0" y="430.0" width="130" height="64" rx="8" ry="8" fill="#fff" stroke="#20242a" stroke-width="2"/>
<text x="1395.0" y="461.0" text-anchor="middle" font-size="13" font-weight="400">Emit invoice</text>
<rect x="1510.0" y="430.0" width="130" height="64" rx="8" ry="8" fill="#fff" stroke="#20242a" stroke-width="2"/>
<text x="1575.0" y="461.0" text-anchor="middle" font-size="13" font-weight="400">Receive payment</text>
<rect x="1330.0" y="560.0" width="130" height="64" rx="8" ry="8" fill="#fff" stroke="#20242a" stroke-width="2"/>
<text x="1395.0" y="591.0" text-anchor="middle" font-size="13" font-weight="400">Create label</text>
<rect x="1510.0" y="560.0" width="130" height="64" rx="8" ry="8" fill="#fff" stroke="#20242a" stroke-width="2"/>
<text x="1575.0" y="591.0" text-anchor="middle" font-size="13" font-weight="400">Pack order</text>
<rect x="1690.0" y="690.0" width="130" height="64" rx="8" ry="8" fill="#fff" stroke="#20242a" stroke-width="2"/>
<text x="1755.0" y="721.0" text-anchor="middle" font-size="13" font-weight="400">Ship product</text>
<polygon points="1905.0,442.0 1930.0,467.0 1905.0,492.0 1880.0,467.0" fill="#fff" stroke="#20242a" stroke-width="2"/>
<text x="1905.0" y="472.0" text-anchor="middle" font-size="18" font-weight="700">+</text>
<text x="1905.0" y="510.0" text-anchor="middle" font-size="12" font-weight="400">Sent</text>
<rect x="1980.0" y="185.0" width="130" height="64" rx="8" ry="8" fill="#fff" stroke="#20242a" stroke-width="2"/>
<text x="2045.0" y="216.0" text-anchor="middle" font-size="13" font-weight="400">Track shipment</text>
<polygon points="2185.0,192.0 2210.0,217.0 2185.0,242.0 2160.0,217.0" fill="#fff" stroke="#20242a" stroke-width="2"/>
<text x="2185.0" y="222.0" text-anchor="middle" font-size="18" font-weight="700">X</text>
<text x="2185.0" y="260.0" text-anchor="middle" font-size="12" font-weight="400">Continue tracking</text>
<polygon points="2285.0,192.0 2310.0,217.0 2285.0,242.0 2260.0,217.0" fill="#fff" stroke="#20242a" stroke-width="2"/>
<text x="2285.0" y="222.0" text-anchor="middle" font-size="18" font-weight="700">E</text>
<text x="2285.0" y="260.0" text-anchor="middle" font-size="12" font-weight="400">SLA event</text>
<circle cx="2398.0" cy="688.0" r="18.0" fill="#fff" stroke="#20242a" stroke-width="2"/>
<circle cx="2398.0" cy="688.0" r="13.0" fill="none" stroke="#20242a" stroke-width="1.5"/>
<rect x="2388.0" y="681.0" width="20" height="14" fill="none" stroke="#20242a" stroke-width="1.3"/>
<path d="M 2388.0 681.0 L 2398.0 689.0 L 2408.0 681.0" fill="none" stroke="#20242a" stroke-width="1.3"/>
<text x="2398.0" y="724.0" text-anchor="middle" font-size="12" font-weight="400">Delivery confirmed</text>
<circle cx="2398.0" cy="778.0" r="18.0" fill="#fff" stroke="#20242a" stroke-width="2"/>
<circle cx="2398.0" cy="778.0" r="13.0" fill="none" stroke="#20242a" stroke-width="1.5"/>
<circle cx="2398.0" cy="778.0" r="8" fill="none" stroke="#20242a" stroke-width="1.4"/>
<line x1="2398.0" y1="778.0" x2="2398.0" y2="772.0" stroke="#20242a" stroke-width="1.4"/>
<line x1="2398.0" y1="778.0" x2="2403.0" y2="781.0" stroke="#20242a" stroke-width="1.4"/>
<text x="2398.0" y="814.0" text-anchor="middle" font-size="12" font-weight="400">SLA breached</text>
<rect x="2480.0" y="875.0" width="130" height="64" rx="8" ry="8" fill="#fff" stroke="#20242a" stroke-width="2"/>
<text x="2545.0" y="906.0" text-anchor="middle" font-size="13" font-weight="400">Open complaint</text>
<rect x="2650.0" y="875.0" width="130" height="64" rx="8" ry="8" fill="#fff" stroke="#20242a" stroke-width="2"/>
<text x="2715.0" y="906.0" text-anchor="middle" font-size="13" font-weight="400">Notify customer</text>
<rect x="2820.0" y="875.0" width="130" height="64" rx="8" ry="8" fill="#fff" stroke="#20242a" stroke-width="2"/>
<text x="2885.0" y="906.0" text-anchor="middle" font-size="13" font-weight="400">Expedite courier</text>
<rect x="2570.0" y="185.0" width="130" height="64" rx="8" ry="8" fill="#fff" stroke="#20242a" stroke-width="2"/>
<text x="2635.0" y="216.0" text-anchor="middle" font-size="13" font-weight="400">Archive order</text>
<circle cx="2768.0" cy="217.0" r="18.0" fill="#fff" stroke="#20242a" stroke-width="4"/>
<text x="2768.0" y="253.0" text-anchor="middle" font-size="12" font-weight="400">Order closed</text>
</svg>
