<svg xmlns="http://www.w3.org/2000/svg" xmlns:xlink="http://www.w3.org/1999/xlink" width="4286pt" height="416pt" viewBox="0.00 0.00 4286.00 416.00">
<g id="graph0" class="graph" transform="scale(1 1) rotate(0) translate(4 411.88)">
<title>assignment1_as_is_petri</title>
<polygon fill="white" stroke="none" points="-4,4 -4,-411.88 4282.44,-411.88 4282.44,4 -4,4"/>
<text xml:space="preserve" text-anchor="middle" x="2139.22" y="-387.68" font-family="Times,serif" font-size="18.00">Assignment 1 As-Is E-Purchase Petri Net</text>
<!-- p_start -->
<g id="node1" class="node">
<title>p_start</title>
<ellipse fill="none" stroke="black" cx="62.77" cy="-268.29" rx="58.77" ry="58.77"/>
<ellipse fill="none" stroke="black" cx="62.77" cy="-268.29" rx="62.77" ry="62.77"/>
<text xml:space="preserve" text-anchor="middle" x="62.77" y="-264.09" font-family="Arial" font-size="14.00">Order received</text>
</g>
<!-- t_capture_order -->
<g id="node20" class="node">
<title>t_capture_order</title>
<path fill="none" stroke="black" d="M251.92,-286.29C251.92,-286.29 173.54,-286.29 173.54,-286.29 167.54,-286.29 161.54,-280.29 161.54,-274.29 161.54,-274.29 161.54,-262.29 161.54,-262.29 161.54,-256.29 167.54,-250.29 173.54,-250.29 173.54,-250.29 251.92,-250.29 251.92,-250.29 257.92,-250.29 263.92,-256.29 263.92,-262.29 263.92,-262.29 263.92,-274.29 263.92,-274.29 263.92,-280.29 257.92,-286.29 251.92,-286.29"/>
<text xml:space="preserve" text-anchor="middle" x="212.73" y="-264.09" font-family="Arial" font-size="14.00">Capture order</text>
</g>
<!-- p_start&#45;&gt;t_capture_order -->
<g id="edge1" class="edge">
<title>p_start-&gt;t_capture_order</title>
<path fill="none" stroke="black" d="M125.66,-268.29C133.64,-268.29 141.82,-268.29 149.8,-268.29"/>
<polygon fill="black" stroke="black" points="149.8,-271.79 159.8,-268.29 149.8,-264.79 149.8,-271.79"/>
</g>
<!-- p_captured -->
<g id="node2" class="node">
<title>p_captured</title>
<ellipse fill="none" stroke="black" cx="359.54" cy="-268.29" rx="59.62" ry="59.62"/>
<text xml:space="preserve" text-anchor="middle" x="359.54" y="-264.09" font-family="Arial" font-size="14.00">Order captured</text>
</g>
<!-- t_check_stock -->
<g id="node21" class="node">
<title>t_check_stock</title>
<path fill="none" stroke="black" d="M535.4,-286.29C535.4,-286.29 467.16,-286.29 467.16,-286.29 461.16,-286.29 455.16,-280.29 455.16,-274.29 455.16,-274.29 455.16,-262.29 455.16,-262.29 455.16,-256.29 461.16,-250.29 467.16,-250.29 467.16,-250.29 535.4,-250.29 535.4,-250.29 541.4,-250.29 547.4,-256.29 547.4,-262.29 547.4,-262.29 547.4,-274.29 547.4,-274.29 547.4,-280.29 541.4,-286.29 535.4,-286.29"/>
<text xml:space="preserve" text-anchor="middle" x="501.28" y="-264.09" font-family="Arial" font-size="14.00">Check stock</text>
</g>
<!-- p_captured&#45;&gt;t_check_stock -->
<g id="edge3" class="edge">
<title>p_captured-&gt;t_check_stock</title>
<path fill="none" stroke="black" d="M419.4,-268.29C427.42,-268.29 435.63,-268.29 443.61,-268.29"/>
<polygon fill="black" stroke="black" points="443.57,-271.79 453.57,-268.29 443.57,-264.79 443.57,-271.79"/>
</g>
<!-- p_stock_decision -->
<g id="node3" class="node">
<title>p_stock_decision</title>
<ellipse fill="none" stroke="black" cx="641.34" cy="-268.29" rx="57.93" ry="57.93"/>
<text xml:space="preserve" text-anchor="middle" x="641.34" y="-264.09" font-family="Arial" font-size="14.00">Stock checked</text>
</g>
<!-- t_stock_no -->
<g id="node22" class="node">
<title>t_stock_no</title>
<path fill="#f4f4f4" stroke="black" stroke-dasharray="5,2" d="M851.72,-331.29C851.72,-331.29 767.12,-331.29 767.12,-331.29 761.12,-331.29 755.12,-325.29 755.12,-319.29 755.12,-319.29 755.12,-307.29 755.12,-307.29 755.12,-301.29 761.12,-295.29 767.12,-295.29 767.12,-295.29 851.72,-295.29 851.72,-295.29 857.72,-295.29 863.72,-301.29 863.72,-307.29 863.72,-307.29 863.72,-319.29 863.72,-319.29 863.72,-325.29 857.72,-331.29 851.72,-331.29"/>
<text xml:space="preserve" text-anchor="middle" x="809.42" y="-309.09" font-family="Arial" font-size="14.00">silent: no stock</text>
</g>
<!-- p_stock_decision&#45;&gt;t_stock_no -->
<g id="edge5" class="edge">
<title>p_stock_decision-&gt;t_stock_no</title>
<path fill="none" stroke="black" d="M697.64,-283.28C712.45,-287.29 728.58,-291.66 743.84,-295.79"/>
<polygon fill="black" stroke="black" points="742.74,-299.12 753.31,-298.36 744.57,-292.36 742.74,-299.12"/>
</g>
<!-- t_stock_yes -->
<g id="node24" class="node">
<title>t_stock_yes</title>
<path fill="#f4f4f4" stroke="black" stroke-dasharray="5,2" d="M871.56,-259.29C871.56,-259.29 747.27,-259.29 747.27,-259.29 741.27,-259.29 735.27,-253.29 735.27,-247.29 735.27,-247.29 735.27,-235.29 735.27,-235.29 735.27,-229.29 741.27,-223.29 747.27,-223.29 747.27,-223.29 871.56,-223.29 871.56,-223.29 877.56,-223.29 883.56,-229.29 883.56,-235.29 883.56,-235.29 883.56,-247.29 883.56,-247.29 883.56,-253.29 877.56,-259.29 871.56,-259.29"/>
<text xml:space="preserve" text-anchor="middle" x="809.42" y="-237.09" font-family="Arial" font-size="14.00">silent: stock available</text>
</g>
<!-- p_stock_decision&#45;&gt;t_stock_yes -->
<g id="edge9" class="edge">
<title>p_stock_decision-&gt;t_stock_yes</title>
<path fill="none" stroke="black" d="M699.03,-259.07C706.98,-257.78 715.28,-256.43 723.61,-255.08"/>
<polygon fill="black" stroke="black" points="724.15,-258.54 733.46,-253.48 723.03,-251.63 724.15,-258.54"/>
</g>
<!-- p_stock_available -->
<g id="node4" class="node">
<title>p_stock_available</title>
<ellipse fill="none" stroke="black" cx="979.19" cy="-206.29" rx="59.62" ry="59.62"/>
<text xml:space="preserve" text-anchor="middle" x="979.19" y="-202.09" font-family="Arial" font-size="14.00">Stock available</text>
</g>
<!-- t_reserve_item -->
<g id="node25" class="node">
<title>t_reserve_item</title>
<path fill="none" stroke="black" d="M1161.28,-224.29C1161.28,-224.29 1086.81,-224.29 1086.81,-224.29 1080.81,-224.29 1074.81,-218.29 1074.81,-212.29 1074.81,-212.29 1074.81,-200.29 1074.81,-200.29 1074.81,-194.29 1080.81,-188.29 1086.81,-188.29 1086.81,-188.29 1161.28,-188.29 1161.28,-188.29 1167.28,-188.29 1173.28,-194.29 1173.28,-200.29 1173.28,-200.29 1173.28,-212.29 1173.28,-212.29 1173.28,-218.29 1167.28,-224.29 1161.28,-224.29"/>
<text xml:space="preserve" text-anchor="middle" x="1124.04" y="-202.09" font-family="Arial" font-size="14.00">Reserve item</text>
</g>
<!-- p_stock_available&#45;&gt;t_reserve_item -->
<g id="edge11" class="edge">
<title>p_stock_available-&gt;t_reserve_item</title>
<path fill="none" stroke="black" d="M1039.11,-206.29C1047.07,-206.29 1055.23,-206.29 1063.2,-206.29"/>
<polygon fill="black" stroke="black" points="1063.17,-209.79 1073.17,-206.29 1063.17,-202.79 1063.17,-209.79"/>
</g>
<!-- p_reject_ready -->
<g id="node5" class="node">
<title>p_reject_ready</title>
<ellipse fill="none" stroke="black" cx="979.19" cy="-331.29" rx="46.99" ry="46.99"/>
<text xml:space="preserve" text-anchor="middle" x="979.19" y="-327.09" font-family="Arial" font-size="14.00">Reject path</text>
</g>
<!-- t_reject_order -->
<g id="node23" class="node">
<title>t_reject_order</title>
<path fill="none" stroke="black" d="M1309.76,-349.29C1309.76,-349.29 1241.51,-349.29 1241.51,-349.29 1235.51,-349.29 1229.51,-343.29 1229.51,-337.29 1229.51,-337.29 1229.51,-325.29 1229.51,-325.29 1229.51,-319.29 1235.51,-313.29 1241.51,-313.29 1241.51,-313.29 1309.76,-313.29 1309.76,-313.29 1315.76,-313.29 1321.76,-319.29 1321.76,-325.29 1321.76,-325.29 1321.76,-337.29 1321.76,-337.29 1321.76,-343.29 1315.76,-349.29 1309.76,-349.29"/>
<text xml:space="preserve" text-anchor="middle" x="1275.63" y="-327.09" font-family="Arial" font-size="14.00">Reject order</text>
</g>
<!-- p_reject_ready&#45;&gt;t_reject_order -->
<g id="edge7" class="edge">
<title>p_reject_ready-&gt;t_reject_order</title>
<path fill="none" stroke="black" d="M1026.52,-331.29C1078.23,-331.29 1161.93,-331.29 1217.62,-331.29"/>
<polygon fill="black" stroke="black" points="1217.54,-334.79 1227.54,-331.29 1217.54,-327.79 1217.54,-334.79"/>
</g>
<!-- p_address_decision -->
<g id="node6" class="node">
<title>p_address_decision</title>
<ellipse fill="none" stroke="black" cx="1275.63" cy="-206.29" rx="66.36" ry="66.36"/>
<text xml:space="preserve" text-anchor="middle" x="1275.63" y="-202.09" font-family="Arial" font-size="14.00">Address decision</text>
</g>
<!-- t_address_no -->
<g id="node26" class="node">
<title>t_address_no</title>
<path fill="#f4f4f4" stroke="black" stroke-dasharray="5,2" d="M1523.61,-233.29C1523.61,-233.29 1389.99,-233.29 1389.99,-233.29 1383.99,-233.29 1377.99,-227.29 1377.99,-221.29 1377.99,-221.29 1377.99,-209.29 1377.99,-209.29 1377.99,-203.29 1383.99,-197.29 1389.99,-197.29 1389.99,-197.29 1523.61,-197.29 1523.61,-197.29 1529.61,-197.29 1535.61,-203.29 1535.61,-209.29 1535.61,-209.29 1535.61,-221.29 1535.61,-221.29 1535.61,-227.29 1529.61,-233.29 1523.61,-233.29"/>
<text xml:space="preserve" text-anchor="middle" x="1456.8" y="-211.09" font-family="Arial" font-size="14.00">silent: address missing</text>
</g>
<!-- p_address_decision&#45;&gt;t_address_no -->
<g id="edge13" class="edge">
<title>p_address_decision-&gt;t_address_no</title>
<path fill="none" stroke="black" d="M1342.33,-209.59C1350.14,-209.98 1358.21,-210.39 1366.27,-210.79"/>
<polygon fill="black" stroke="black" points="1365.97,-214.28 1376.14,-211.29 1366.33,-207.29 1365.97,-214.28"/>
</g>
<!-- t_address_yes -->
<g id="node28" class="node">
<title>t_address_yes</title>
<path fill="#f4f4f4" stroke="black" stroke-dasharray="5,2" d="M1710.23,-151.29C1710.23,-151.29 1583.61,-151.29 1583.61,-151.29 1577.61,-151.29 1571.61,-145.29 1571.61,-139.29 1571.61,-139.29 1571.61,-127.29 1571.61,-127.29 1571.61,-121.29 1577.61,-115.29 1583.61,-115.29 1583.61,-115.29 1710.23,-115.29 1710.23,-115.29 1716.23,-115.29 1722.23,-121.29 1722.23,-127.29 1722.23,-127.29 1722.23,-139.29 1722.23,-139.29 1722.23,-145.29 1716.23,-151.29 1710.23,-151.29"/>
<text xml:space="preserve" text-anchor="middle" x="1646.92" y="-129.09" font-family="Arial" font-size="14.00">silent: address known</text>
</g>
<!-- p_address_decision&#45;&gt;t_address_yes -->
<g id="edge17" class="edge">
<title>p_address_decision-&gt;t_address_yes</title>
<path fill="none" stroke="black" d="M1340.96,-193.58C1401.74,-181.56 1493.33,-163.46 1560.27,-150.22"/>
<polygon fill="black" stroke="black" points="1560.59,-153.73 1569.73,-148.35 1559.24,-146.86 1560.59,-153.73"/>
</g>
<!-- p_address_missing -->
<g id="node7" class="node">
<title>p_address_missing</title>
<ellipse fill="none" stroke="black" cx="1646.92" cy="-232.29" rx="63.4" ry="63.4"/>
<text xml:space="preserve" text-anchor="middle" x="1646.92" y="-228.09" font-family="Arial" font-size="14.00">Missing address</text>
</g>
<!-- t_request_address -->
<g id="node27" class="node">
<title>t_request_address</title>
<path fill="none" stroke="black" d="M1868.07,-237.29C1868.07,-237.29 1770.23,-237.29 1770.23,-237.29 1764.23,-237.29 1758.23,-231.29 1758.23,-225.29 1758.23,-225.29 1758.23,-213.29 1758.23,-213.29 1758.23,-207.29 1764.23,-201.29 1770.23,-201.29 1770.23,-201.29 1868.07,-201.29 1868.07,-201.29 1874.07,-201.29 1880.07,-207.29 1880.07,-213.29 1880.07,-213.29 1880.07,-225.29 1880.07,-225.29 1880.07,-231.29 1874.07,-237.29 1868.07,-237.29"/>
<text xml:space="preserve" text-anchor="middle" x="1819.15" y="-215.09" font-family="Arial" font-size="14.00">Request address</text>
</g>
<!-- p_address_missing&#45;&gt;t_request_address -->
<g id="edge15" class="edge">
<title>p_address_missing-&gt;t_request_address</title>
<path fill="none" stroke="black" d="M1710.34,-227.52C1722.14,-226.62 1734.56,-225.68 1746.6,-224.76"/>
<polygon fill="black" stroke="black" points="1746.79,-228.25 1756.5,-224 1746.26,-221.27 1746.79,-228.25"/>
</g>
<!-- p_ready_to_prepare -->
<g id="node8" class="node">
<title>p_ready_to_prepare</title>
<ellipse fill="none" stroke="black" cx="1983.28" cy="-193.29" rx="67.21" ry="67.21"/>
<text xml:space="preserve" text-anchor="middle" x="1983.28" y="-189.09" font-family="Arial" font-size="14.00">Ready to prepare</text>
</g>
<!-- t_prepare_split -->
<g id="node29" class="node">
<title>t_prepare_split</title>
<path fill="#f4f4f4" stroke="black" stroke-dasharray="5,2" d="M2204.87,-211.29C2204.87,-211.29 2098.49,-211.29 2098.49,-211.29 2092.49,-211.29 2086.49,-205.29 2086.49,-199.29 2086.49,-199.29 2086.49,-187.29 2086.49,-187.29 2086.49,-181.29 2092.49,-175.29 2098.49,-175.29 2098.49,-175.29 2204.87,-175.29 2204.87,-175.29 2210.87,-175.29 2216.87,-181.29 2216.87,-187.29 2216.87,-187.29 2216.87,-199.29 2216.87,-199.29 2216.87,-205.29 2210.87,-211.29 2204.87,-211.29"/>
<text xml:space="preserve" text-anchor="middle" x="2151.68" y="-189.09" font-family="Arial" font-size="14.00">silent: parallel split</text>
</g>
<!-- p_ready_to_prepare&#45;&gt;t_prepare_split -->
<g id="edge19" class="edge">
<title>p_ready_to_prepare-&gt;t_prepare_split</title>
<path fill="none" stroke="black" d="M2050.52,-193.29C2058.47,-193.29 2066.63,-193.29 2074.7,-193.29"/>
<polygon fill="black" stroke="black" points="2074.51,-196.79 2084.51,-193.29 2074.51,-189.79 2074.51,-196.79"/>
</g>
<!-- p_payment_ready -->
<g id="node9" class="node">
<title>p_payment_ready</title>
<ellipse fill="none" stroke="black" cx="2321.33" cy="-232.29" rx="63.83" ry="63.83"/>
<text xml:space="preserve" text-anchor="middle" x="2321.33" y="-228.09" font-family="Arial" font-size="14.00">Payment branch</text>
</g>
<!-- t_authorize_payment -->
<g id="node30" class="node">
<title>t_authorize_payment</title>
<path fill="none" stroke="black" d="M2546.52,-246.29C2546.52,-246.29 2437.78,-246.29 2437.78,-246.29 2431.78,-246.29 2425.78,-240.29 2425.78,-234.29 2425.78,-234.29 2425.78,-222.29 2425.78,-222.29 2425.78,-216.29 2431.78,-210.29 2437.78,-210.29 2437.78,-210.29 2546.52,-210.29 2546.52,-210.29 2552.52,-210.29 2558.52,-216.29 2558.52,-222.29 2558.52,-222.29 2558.52,-234.29 2558.52,-234.29 2558.52,-240.29 2552.52,-246.29 2546.52,-246.29"/>
<text xml:space="preserve" text-anchor="middle" x="2492.15" y="-224.09" font-family="Arial" font-size="14.00">Authorize payment</text>
</g>
<!-- p_payment_ready&#45;&gt;t_authorize_payment -->
<g id="edge22" class="edge">
<title>p_payment_ready-&gt;t_authorize_payment</title>
<path fill="none" stroke="black" d="M2385.19,-230.8C2394.62,-230.58 2404.44,-230.35 2414.13,-230.12"/>
<polygon fill="black" stroke="black" points="2413.98,-233.62 2423.9,-229.88 2413.82,-226.62 2413.98,-233.62"/>
</g>
<!-- p_fulfillment_ready -->
<g id="node10" class="node">
<title>p_fulfillment_ready</title>
<ellipse fill="none" stroke="black" cx="2321.33" cy="-82.29" rx="68.46" ry="68.46"/>
<text xml:space="preserve" text-anchor="middle" x="2321.33" y="-78.09" font-family="Arial" font-size="14.00">Fulfillment branch</text>
</g>
<!-- t_pick_pack -->
<g id="node32" class="node">
<title>t_pick_pack</title>
<path fill="none" stroke="black" d="M2531.73,-108.29C2531.73,-108.29 2452.57,-108.29 2452.57,-108.29 2446.57,-108.29 2440.57,-102.29 2440.57,-96.29 2440.57,-96.29 2440.57,-84.29 2440.57,-84.29 2440.57,-78.29 2446.57,-72.29 2452.57,-72.29 2452.57,-72.29 2531.73,-72.29 2531.73,-72.29 2537.73,-72.29 2543.73,-78.29 2543.73,-84.29 2543.73,-84.29 2543.73,-96.29 2543.73,-96.29 2543.73,-102.29 2537.73,-108.29 2531.73,-108.29"/>
<text xml:space="preserve" text-anchor="middle" x="2492.15" y="-86.09" font-family="Arial" font-size="14.00">Pick and pack</text>
</g>
<!-- p_fulfillment_ready&#45;&gt;t_pick_pack -->
<g id="edge26" class="edge">
<title>p_fulfillment_ready-&gt;t_pick_pack</title>
<path fill="none" stroke="black" d="M2390.02,-85.5C2402.8,-86.1 2416.12,-86.74 2428.73,-87.33"/>
<polygon fill="black" stroke="black" points="2428.41,-90.82 2438.57,-87.8 2428.74,-83.83 2428.41,-90.82"/>
</g>
<!-- p_payment_authorized -->
<g id="node11" class="node">
<title>p_payment_authorized</title>
<ellipse fill="none" stroke="black" cx="2670.56" cy="-224.29" rx="76.05" ry="76.05"/>
<text xml:space="preserve" text-anchor="middle" x="2670.56" y="-220.09" font-family="Arial" font-size="14.00">Payment authorized</text>
</g>
<!-- t_emit_invoice -->
<g id="node31" class="node">
<title>t_emit_invoice</title>
<path fill="none" stroke="black" d="M2863.65,-232.29C2863.65,-232.29 2796.18,-232.29 2796.18,-232.29 2790.18,-232.29 2784.18,-226.29 2784.18,-220.29 2784.18,-220.29 2784.18,-208.29 2784.18,-208.29 2784.18,-202.29 2790.18,-196.29 2796.18,-196.29 2796.18,-196.29 2863.65,-196.29 2863.65,-196.29 2869.65,-196.29 2875.65,-202.29 2875.65,-208.29 2875.65,-208.29 2875.65,-220.29 2875.65,-220.29 2875.65,-226.29 2869.65,-232.29 2863.65,-232.29"/>
<text xml:space="preserve" text-anchor="middle" x="2829.91" y="-210.09" font-family="Arial" font-size="14.00">Emit invoice</text>
</g>
<!-- p_payment_authorized&#45;&gt;t_emit_invoice -->
<g id="edge24" class="edge">
<title>p_payment_authorized-&gt;t_emit_invoice</title>
<path fill="none" stroke="black" d="M2746.55,-219.53C2755.37,-218.97 2764.25,-218.4 2772.74,-217.86"/>
<polygon fill="black" stroke="black" points="2772.78,-221.37 2782.54,-217.24 2772.34,-214.38 2772.78,-221.37"/>
</g>
<!-- p_invoice_done -->
<g id="node12" class="node">
<title>p_invoice_done</title>
<ellipse fill="none" stroke="black" cx="2972.84" cy="-211.29" rx="59.62" ry="59.62"/>
<text xml:space="preserve" text-anchor="middle" x="2972.84" y="-207.09" font-family="Arial" font-size="14.00">Invoice emitted</text>
</g>
<!-- t_prepare_join -->
<g id="node34" class="node">
<title>t_prepare_join</title>
<path fill="#f4f4f4" stroke="black" stroke-dasharray="5,2" d="M3183.74,-111.29C3183.74,-111.29 3080.45,-111.29 3080.45,-111.29 3074.45,-111.29 3068.45,-105.29 3068.45,-99.29 3068.45,-99.29 3068.45,-87.29 3068.45,-87.29 3068.45,-81.29 3074.45,-75.29 3080.45,-75.29 3080.45,-75.29 3183.74,-75.29 3183.74,-75.29 3189.74,-75.29 3195.74,-81.29 3195.74,-87.29 3195.74,-87.29 3195.74,-99.29 3195.74,-99.29 3195.74,-105.29 3189.74,-111.29 3183.74,-111.29"/>
<text xml:space="preserve" text-anchor="middle" x="3132.1" y="-89.09" font-family="Arial" font-size="14.00">silent: parallel join</text>
</g>
<!-- p_invoice_done&#45;&gt;t_prepare_join -->
<g id="edge30" class="edge">
<title>p_invoice_done-&gt;t_prepare_join</title>
<path fill="none" stroke="black" d="M3021.02,-175.89C3045.72,-157.35 3075.37,-135.1 3097.68,-118.37"/>
<polygon fill="black" stroke="black" points="3099.64,-121.27 3105.54,-112.47 3095.44,-115.67 3099.64,-121.27"/>
</g>
<!-- p_packed -->
<g id="node13" class="node">
<title>p_packed</title>
<ellipse fill="none" stroke="black" cx="2670.56" cy="-92.29" rx="33.93" ry="33.93"/>
<text xml:space="preserve" text-anchor="middle" x="2670.56" y="-88.09" font-family="Arial" font-size="14.00">Packed</text>
</g>
<!-- t_ship_product -->
<g id="node33" class="node">
<title>t_ship_product</title>
<path fill="none" stroke="black" d="M2865.22,-111.29C2865.22,-111.29 2794.61,-111.29 2794.61,-111.29 2788.61,-111.29 2782.61,-105.29 2782.61,-99.29 2782.61,-99.29 2782.61,-87.29 2782.61,-87.29 2782.61,-81.29 2788.61,-75.29 2794.61,-75.29 2794.61,-75.29 2865.22,-75.29 2865.22,-75.29 2871.22,-75.29 2877.22,-81.29 2877.22,-87.29 2877.22,-87.29 2877.22,-99.29 2877.22,-99.29 2877.22,-105.29 2871.22,-111.29 2865.22,-111.29"/>
<text xml:space="preserve" text-anchor="middle" x="2829.91" y="-89.09" font-family="Arial" font-size="14.00">Ship product</text>
</g>
<!-- p_packed&#45;&gt;t_ship_product -->
<g id="edge28" class="edge">
<title>p_packed-&gt;t_ship_product</title>
<path fill="none" stroke="black" d="M2704.93,-92.5C2724.06,-92.62 2748.61,-92.78 2770.81,-92.92"/>
<polygon fill="black" stroke="black" points="2770.63,-96.42 2780.65,-92.98 2770.67,-89.42 2770.63,-96.42"/>
</g>
<!-- p_shipped -->
<g id="node14" class="node">
<title>p_shipped</title>
<ellipse fill="none" stroke="black" cx="2972.84" cy="-93.29" rx="36.47" ry="36.47"/>
<text xml:space="preserve" text-anchor="middle" x="2972.84" y="-89.09" font-family="Arial" font-size="14.00">Shipped</text>
</g>
<!-- p_shipped&#45;&gt;t_prepare_join -->
<g id="edge31" class="edge">
<title>p_shipped-&gt;t_prepare_join</title>
<path fill="none" stroke="black" d="M3009.52,-93.29C3023.58,-93.29 3040.29,-93.29 3056.75,-93.29"/>
<polygon fill="black" stroke="black" points="3056.55,-96.79 3066.55,-93.29 3056.55,-89.79 3056.55,-96.79"/>
</g>
<!-- p_wait_delivery -->
<g id="node15" class="node">
<title>p_wait_delivery</title>
<ellipse fill="none" stroke="black" cx="3293.87" cy="-93.29" rx="62.14" ry="62.14"/>
<text xml:space="preserve" text-anchor="middle" x="3293.87" y="-89.09" font-family="Arial" font-size="14.00">Waiting delivery</text>
</g>
<!-- t_delivery_confirmed -->
<g id="node35" class="node">
<title>t_delivery_confirmed</title>
<path fill="none" stroke="black" d="M3574.2,-208.29C3574.2,-208.29 3404.01,-208.29 3404.01,-208.29 3398.01,-208.29 3392.01,-202.29 3392.01,-196.29 3392.01,-196.29 3392.01,-184.29 3392.01,-184.29 3392.01,-178.29 3398.01,-172.29 3404.01,-172.29 3404.01,-172.29 3574.2,-172.29 3574.2,-172.29 3580.2,-172.29 3586.2,-178.29 3586.2,-184.29 3586.2,-184.29 3586.2,-196.29 3586.2,-196.29 3586.2,-202.29 3580.2,-208.29 3574.2,-208.29"/>
<text xml:space="preserve" text-anchor="middle" x="3489.1" y="-186.09" font-family="Arial" font-size="14.00">Message: delivery confirmed</text>
</g>
<!-- p_wait_delivery&#45;&gt;t_delivery_confirmed -->
<g id="edge33" class="edge">
<title>p_wait_delivery-&gt;t_delivery_confirmed</title>
<path fill="none" stroke="black" d="M3349.99,-120.96C3378.77,-135.41 3413.62,-152.9 3441.12,-166.7"/>
<polygon fill="black" stroke="black" points="3439.4,-169.76 3449.91,-171.12 3442.54,-163.5 3439.4,-169.76"/>
</g>
<!-- t_goods_delayed -->
<g id="node36" class="node">
<title>t_goods_delayed</title>
<path fill="none" stroke="black" d="M3552.42,-111.29C3552.42,-111.29 3425.79,-111.29 3425.79,-111.29 3419.79,-111.29 3413.79,-105.29 3413.79,-99.29 3413.79,-99.29 3413.79,-87.29 3413.79,-87.29 3413.79,-81.29 3419.79,-75.29 3425.79,-75.29 3425.79,-75.29 3552.42,-75.29 3552.42,-75.29 3558.42,-75.29 3564.42,-81.29 3564.42,-87.29 3564.42,-87.29 3564.42,-99.29 3564.42,-99.29 3564.42,-105.29 3558.42,-111.29 3552.42,-111.29"/>
<text xml:space="preserve" text-anchor="middle" x="3489.1" y="-89.09" font-family="Arial" font-size="14.00">Timer: goods delayed</text>
</g>
<!-- p_wait_delivery&#45;&gt;t_goods_delayed -->
<g id="edge37" class="edge">
<title>p_wait_delivery-&gt;t_goods_delayed</title>
<path fill="none" stroke="black" d="M3356.28,-93.29C3370.86,-93.29 3386.69,-93.29 3402.14,-93.29"/>
<polygon fill="black" stroke="black" points="3401.79,-96.79 3411.79,-93.29 3401.79,-89.79 3401.79,-96.79"/>
</g>
<!-- p_delay_case -->
<g id="node16" class="node">
<title>p_delay_case</title>
<ellipse fill="none" stroke="black" cx="3693.59" cy="-93.29" rx="49.93" ry="49.93"/>
<text xml:space="preserve" text-anchor="middle" x="3693.59" y="-89.09" font-family="Arial" font-size="14.00">Delay active</text>
</g>
<!-- t_register_complaint -->
<g id="node37" class="node">
<title>t_register_complaint</title>
<path fill="none" stroke="black" d="M3920.93,-118.29C3920.93,-118.29 3812.99,-118.29 3812.99,-118.29 3806.99,-118.29 3800.99,-112.29 3800.99,-106.29 3800.99,-106.29 3800.99,-94.29 3800.99,-94.29 3800.99,-88.29 3806.99,-82.29 3812.99,-82.29 3812.99,-82.29 3920.93,-82.29 3920.93,-82.29 3926.93,-82.29 3932.93,-88.29 3932.93,-94.29 3932.93,-94.29 3932.93,-106.29 3932.93,-106.29 3932.93,-112.29 3926.93,-118.29 3920.93,-118.29"/>
<text xml:space="preserve" text-anchor="middle" x="3866.96" y="-96.09" font-family="Arial" font-size="14.00">Register complaint</text>
</g>
<!-- p_delay_case&#45;&gt;t_register_complaint -->
<g id="edge39" class="edge">
<title>p_delay_case-&gt;t_register_complaint</title>
<path fill="none" stroke="black" d="M3743.7,-95.3C3757.95,-95.88 3773.85,-96.53 3789.36,-97.16"/>
<polygon fill="black" stroke="black" points="3788.9,-100.65 3799.04,-97.56 3789.19,-93.65 3788.9,-100.65"/>
</g>
<!-- p_complaint_registered -->
<g id="node17" class="node">
<title>p_complaint_registered</title>
<ellipse fill="none" stroke="black" cx="4047.5" cy="-108.29" rx="78.57" ry="78.57"/>
<text xml:space="preserve" text-anchor="middle" x="4047.5" y="-104.09" font-family="Arial" font-size="14.00">Complaint registered</text>
</g>
<!-- t_escalate_courier -->
<g id="node38" class="node">
<title>t_escalate_courier</title>
<path fill="none" stroke="black" d="M4266.44,-72.29C4266.44,-72.29 4174.07,-72.29 4174.07,-72.29 4168.07,-72.29 4162.07,-66.29 4162.07,-60.29 4162.07,-60.29 4162.07,-48.29 4162.07,-48.29 4162.07,-42.29 4168.07,-36.29 4174.07,-36.29 4174.07,-36.29 4266.44,-36.29 4266.44,-36.29 4272.44,-36.29 4278.44,-42.29 4278.44,-48.29 4278.44,-48.29 4278.44,-60.29 4278.44,-60.29 4278.44,-66.29 4272.44,-72.29 4266.44,-72.29"/>
<text xml:space="preserve" text-anchor="middle" x="4220.25" y="-50.09" font-family="Arial" font-size="14.00">Escalate courier</text>
</g>
<!-- p_complaint_registered&#45;&gt;t_escalate_courier -->
<g id="edge41" class="edge">
<title>p_complaint_registered-&gt;t_escalate_courier</title>
<path fill="none" stroke="black" d="M4122.9,-84.76C4132.26,-81.8 4141.81,-78.78 4151.07,-75.85"/>
<polygon fill="black" stroke="black" points="4151.87,-79.27 4160.35,-72.92 4149.76,-72.6 4151.87,-79.27"/>
</g>
<!-- p_delivery_ok -->
<g id="node18" class="node">
<title>p_delivery_ok</title>
<ellipse fill="none" stroke="black" cx="3693.59" cy="-232.29" rx="71.4" ry="71.4"/>
<text xml:space="preserve" text-anchor="middle" x="3693.59" y="-228.09" font-family="Arial" font-size="14.00">Delivery confirmed</text>
</g>
<!-- t_archive_order -->
<g id="node39" class="node">
<title>t_archive_order</title>
<path fill="none" stroke="black" d="M3904.59,-276.29C3904.59,-276.29 3829.33,-276.29 3829.33,-276.29 3823.33,-276.29 3817.33,-270.29 3817.33,-264.29 3817.33,-264.29 3817.33,-252.29 3817.33,-252.29 3817.33,-246.29 3823.33,-240.29 3829.33,-240.29 3829.33,-240.29 3904.59,-240.29 3904.59,-240.29 3910.59,-240.29 3916.59,-246.29 3916.59,-252.29 3916.59,-252.29 3916.59,-264.29 3916.59,-264.29 3916.59,-270.29 3910.59,-276.29 3904.59,-276.29"/>
<text xml:space="preserve" text-anchor="middle" x="3866.96" y="-254.09" font-family="Arial" font-size="14.00">Archive order</text>
</g>
<!-- p_delivery_ok&#45;&gt;t_archive_order -->
<g id="edge35" class="edge">
<title>p_delivery_ok-&gt;t_archive_order</title>
<path fill="none" stroke="black" d="M3764.3,-242.87C3778.12,-244.96 3792.53,-247.15 3805.99,-249.19"/>
<polygon fill="black" stroke="black" points="3805.15,-252.6 3815.56,-250.64 3806.2,-245.68 3805.15,-252.6"/>
</g>
<!-- p_done -->
<g id="node19" class="node">
<title>p_done</title>
<ellipse fill="none" stroke="black" cx="4047.5" cy="-295.29" rx="50.35" ry="50.35"/>
<ellipse fill="none" stroke="black" cx="4047.5" cy="-295.29" rx="54.35" ry="54.35"/>
<text xml:space="preserve" text-anchor="middle" x="4047.5" y="-291.09" font-family="Arial" font-size="14.00">Case closed</text>
</g>
<!-- t_capture_order&#45;&gt;p_captured -->
<g id="edge2" class="edge">
<title>t_capture_order-&gt;p_captured</title>
<path fill="none" stroke="black" d="M264.38,-268.29C272.08,-268.29 280.15,-268.29 288.19,-268.29"/>
<polygon fill="black" stroke="black" points="287.97,-271.79 297.97,-268.29 287.97,-264.79 287.97,-271.79"/>
</g>
<!-- t_check_stock&#45;&gt;p_stock_decision -->
<g id="edge4" class="edge">
<title>t_check_stock-&gt;p_stock_decision</title>
<path fill="none" stroke="black" d="M547.87,-268.29C555.56,-268.29 563.68,-268.29 571.8,-268.29"/>
<polygon fill="black" stroke="black" points="571.71,-271.79 581.71,-268.29 571.71,-264.79 571.71,-271.79"/>
</g>
<!-- t_stock_no&#45;&gt;p_reject_ready -->
<g id="edge6" class="edge">
<title>t_stock_no-&gt;p_reject_ready</title>
<path fill="none" stroke="black" d="M863.96,-319.04C882.15,-320.99 902.53,-323.17 920.99,-325.15"/>
<polygon fill="black" stroke="black" points="920.38,-328.61 930.69,-326.2 921.12,-321.65 920.38,-328.61"/>
</g>
<!-- t_reject_order&#45;&gt;p_done -->
<g id="edge8" class="edge">
<title>t_reject_order-&gt;p_done</title>
<path fill="none" stroke="black" d="M1322.12,-331.29C1391.81,-331.29 1529.24,-331.29 1645.92,-331.29 1645.92,-331.29 1645.92,-331.29 3694.59,-331.29 3795.53,-331.29 3911.9,-316.45 3982.29,-305.83"/>
<polygon fill="black" stroke="black" points="3982.76,-309.3 3992.11,-304.33 3981.7,-302.38 3982.76,-309.3"/>
</g>
<!-- t_stock_yes&#45;&gt;p_stock_available -->
<g id="edge10" class="edge">
<title>t_stock_yes-&gt;p_stock_available</title>
<path fill="none" stroke="black" d="M884,-225.94C892.36,-224.2 900.85,-222.43 909.14,-220.7"/>
<polygon fill="black" stroke="black" points="909.73,-224.15 918.81,-218.68 908.3,-217.29 909.73,-224.15"/>
</g>
<!-- t_reserve_item&#45;&gt;p_address_decision -->
<g id="edge12" class="edge">
<title>t_reserve_item-&gt;p_address_decision</title>
<path fill="none" stroke="black" d="M1173.61,-206.29C1181.26,-206.29 1189.34,-206.29 1197.45,-206.29"/>
<polygon fill="black" stroke="black" points="1197.39,-209.79 1207.39,-206.29 1197.39,-202.79 1197.39,-209.79"/>
</g>
<!-- t_address_no&#45;&gt;p_address_missing -->
<g id="edge14" class="edge">
<title>t_address_no-&gt;p_address_missing</title>
<path fill="none" stroke="black" d="M1535.95,-222.35C1547.96,-223.44 1560.32,-224.56 1572.23,-225.63"/>
<polygon fill="black" stroke="black" points="1571.7,-229.1 1581.98,-226.51 1572.33,-222.13 1571.7,-229.1"/>
</g>
<!-- t_request_address&#45;&gt;p_ready_to_prepare -->
<g id="edge16" class="edge">
<title>t_request_address-&gt;p_ready_to_prepare</title>
<path fill="none" stroke="black" d="M1880.52,-209.61C1888.57,-208.32 1896.91,-206.98 1905.19,-205.65"/>
<polygon fill="black" stroke="black" points="1905.6,-209.13 1914.92,-204.09 1904.5,-202.22 1905.6,-209.13"/>
</g>
<!-- t_address_yes&#45;&gt;p_ready_to_prepare -->
<g id="edge18" class="edge">
<title>t_address_yes-&gt;p_ready_to_prepare</title>
<path fill="none" stroke="black" d="M1722.54,-146.68C1777.01,-156.46 1850.62,-169.67 1905.57,-179.53"/>
<polygon fill="black" stroke="black" points="1904.7,-182.93 1915.16,-181.25 1905.94,-176.04 1904.7,-182.93"/>
</g>
<!-- t_prepare_split&#45;&gt;p_payment_ready -->
<g id="edge20" class="edge">
<title>t_prepare_split-&gt;p_payment_ready</title>
<path fill="none" stroke="black" d="M2217.02,-208.26C2227.05,-210.59 2237.48,-213.02 2247.69,-215.39"/>
<polygon fill="black" stroke="black" points="2246.64,-218.74 2257.17,-217.6 2248.22,-211.92 2246.64,-218.74"/>
</g>
<!-- t_prepare_split&#45;&gt;p_fulfillment_ready -->
<g id="edge21" class="edge">
<title>t_prepare_split-&gt;p_fulfillment_ready</title>
<path fill="none" stroke="black" d="M2180.36,-174.96C2200.49,-161.64 2228.61,-143.02 2254.37,-125.96"/>
<polygon fill="black" stroke="black" points="2256.07,-129.04 2262.47,-120.6 2252.2,-123.2 2256.07,-129.04"/>
</g>
<!-- t_authorize_payment&#45;&gt;p_payment_authorized -->
<g id="edge23" class="edge">
<title>t_authorize_payment-&gt;p_payment_authorized</title>
<path fill="none" stroke="black" d="M2558.84,-226.8C2566.7,-226.62 2574.81,-226.44 2582.9,-226.26"/>
<polygon fill="black" stroke="black" points="2582.88,-229.76 2592.8,-226.03 2582.72,-222.76 2582.88,-229.76"/>
</g>
<!-- t_emit_invoice&#45;&gt;p_invoice_done -->
<g id="edge25" class="edge">
<title>t_emit_invoice-&gt;p_invoice_done</title>
<path fill="none" stroke="black" d="M2875.89,-213.33C2884.07,-213.16 2892.77,-212.97 2901.48,-212.79"/>
<polygon fill="black" stroke="black" points="2901.44,-216.29 2911.36,-212.58 2901.29,-209.29 2901.44,-216.29"/>
</g>
<!-- t_pick_pack&#45;&gt;p_packed -->
<g id="edge27" class="edge">
<title>t_pick_pack-&gt;p_packed</title>
<path fill="none" stroke="black" d="M2544.18,-90.87C2569.74,-91.16 2600.4,-91.51 2625.01,-91.79"/>
<polygon fill="black" stroke="black" points="2624.65,-95.28 2634.69,-91.9 2624.73,-88.28 2624.65,-95.28"/>
</g>
<!-- t_ship_product&#45;&gt;p_shipped -->
<g id="edge29" class="edge">
<title>t_ship_product-&gt;p_shipped</title>
<path fill="none" stroke="black" d="M2877.45,-93.29C2892.65,-93.29 2909.54,-93.29 2924.79,-93.29"/>
<polygon fill="black" stroke="black" points="2924.55,-96.79 2934.55,-93.29 2924.55,-89.79 2924.55,-96.79"/>
</g>
<!-- t_prepare_join&#45;&gt;p_wait_delivery -->
<g id="edge32" class="edge">
<title>t_prepare_join-&gt;p_wait_delivery</title>
<path fill="none" stroke="black" d="M3195.79,-93.29C3203.75,-93.29 3211.95,-93.29 3220.05,-93.29"/>
<polygon fill="black" stroke="black" points="3219.9,-96.79 3229.9,-93.29 3219.9,-89.79 3219.9,-96.79"/>
</g>
<!-- t_delivery_confirmed&#45;&gt;p_delivery_ok -->
<g id="edge34" class="edge">
<title>t_delivery_confirmed-&gt;p_delivery_ok</title>
<path fill="none" stroke="black" d="M3579.21,-208.77C3590.16,-211.04 3601.3,-213.35 3612.11,-215.6"/>
<polygon fill="black" stroke="black" points="3611.24,-218.99 3621.75,-217.6 3612.67,-212.14 3611.24,-218.99"/>
</g>
<!-- t_goods_delayed&#45;&gt;p_delay_case -->
<g id="edge38" class="edge">
<title>t_goods_delayed-&gt;p_delay_case</title>
<path fill="none" stroke="black" d="M3564.64,-93.29C3586.81,-93.29 3610.82,-93.29 3631.99,-93.29"/>
<polygon fill="black" stroke="black" points="3631.91,-96.79 3641.91,-93.29 3631.91,-89.79 3631.91,-96.79"/>
</g>
<!-- t_register_complaint&#45;&gt;p_complaint_registered -->
<g id="edge40" class="edge">
<title>t_register_complaint-&gt;p_complaint_registered</title>
<path fill="none" stroke="black" d="M3933.43,-103.22C3941.21,-103.57 3949.25,-103.93 3957.28,-104.29"/>
<polygon fill="black" stroke="black" points="3956.96,-107.78 3967.11,-104.73 3957.28,-100.79 3956.96,-107.78"/>
</g>
<!-- t_escalate_courier&#45;&gt;p_wait_delivery -->
<g id="edge42" class="edge">
<title>t_escalate_courier-&gt;p_wait_delivery</title>
<path fill="none" stroke="black" d="M4176.37,-35.83C4160.81,-29.89 4142.9,-23.91 4126.07,-20.29 4013.61,3.87 3982.98,-1.29 3867.96,-1.29 3692.59,-1.29 3692.59,-1.29 3692.59,-1.29 3574.31,-1.29 3441.21,-40.4 3362.89,-67.62"/>
<polygon fill="black" stroke="black" points="3361.91,-64.25 3353.63,-70.87 3364.23,-70.85 3361.91,-64.25"/>
</g>
<!-- t_archive_order&#45;&gt;p_done -->
<g id="edge36" class="edge">
<title>t_archive_order-&gt;p_done</title>
<path fill="none" stroke="black" d="M3916.75,-268.4C3937.14,-272.63 3961.12,-277.6 3982.87,-282.11"/>
<polygon fill="black" stroke="black" points="3982.03,-285.51 3992.53,-284.11 3983.45,-278.65 3982.03,-285.51"/>
</g>
</g>
</svg>